<?xml version="1.0" encoding="utf-8"?>
<!-- Generator: Adobe Illustrator 19.0.0, SVG Export Plug-In . SVG Version: 6.00 Build 0)  -->
<svg version="1.1" xmlns="http://www.w3.org/2000/svg" xmlns:xlink="http://www.w3.org/1999/xlink" x="0px" y="0px"
	 viewBox="0 0 1760 240" enable-background="new 0 0 1760 240" xml:space="preserve">
<g id="Text">
	<rect x="0" y="32.4043" fill="none" width="720" height="180.3887"/>
	<text transform="matrix(1.0151 0 0 1 0 184.0918)"><tspan x="0" y="0" fill="#524FA1" font-family="'HelveticaNeue-Light'" font-size="177px" letter-spacing="2.9553">Elizabet</tspan><tspan x="614.2269" y="0" fill="#524FA1" font-family="'HelveticaNeue-Light'" font-size="177px">h</tspan></text>
	<rect x="1040" y="32.4043" fill="none" width="720" height="180.3887"/>
	<text transform="matrix(1.0151 0 0 1 1040 184.0918)" fill="#524FA1" font-family="'HelveticaNeue-Light'" font-size="177px">Schindler</text>
</g>
<g id="Logo">
	<path fill="none" stroke="#524FA1" stroke-width="13" stroke-miterlimit="10" d="M879.9986,33.0257
		C868.6998,16.9826,850.035,6.5009,828.9243,6.5009c-17.2405,0-32.8465,6.9859-44.1396,18.2848
		C773.4858,36.0789,766.5,51.6851,766.5,68.9256c0,21.1109,10.4816,39.7759,26.5246,51.0748
		c-16.043,11.2989-26.5246,29.9639-26.5246,51.0748c0,17.2406,6.9858,32.8468,18.2846,44.14
		c11.2932,11.2989,26.8992,18.2848,44.1396,18.2848c21.1107,0,39.7756-10.4817,51.0743-26.5248
		C891.2974,223.0183,909.9622,233.5,931.073,233.5c17.2404,0,32.8465-6.9859,44.1396-18.2848
		c11.2988-11.2932,18.2846-26.8994,18.2846-44.14c0-21.1109-10.178-40.2197-26.5247-51.0748
		c-37.6021-24.9699-91.3058-19.84-92.3652-63.276C874.0399,33.457,894.8601,6.6912,931.073,6.5009
		c36.2271-0.1904,62.7389,30.1862,62.4243,62.4248"/>
</g>
</svg>
