<?xml version="1.0" encoding="utf-8"?>
<!-- Generator: Adobe Illustrator 18.1.1, SVG Export Plug-In . SVG Version: 6.00 Build 0)  -->
<svg version="1.1" xmlns="http://www.w3.org/2000/svg" xmlns:xlink="http://www.w3.org/1999/xlink" x="0px" y="0px"
	 viewBox="0 0 400 400" enable-background="new 0 0 400 400" xml:space="preserve">
<g id="Text" display="none">
	<text transform="matrix(1 0 0 1 9.5053 580.6878)" display="inline" font-family="'HelveticaNeue-Light'" font-size="200">Elizabeth Schindler</text>
</g>
<g id="Text_copy" display="none">
	<text transform="matrix(1 0 0 1 494.2915 380.0002)" display="inline" font-family="'HelveticaNeue-Light'" font-size="400">Elizabeth Schindler</text>
</g>
<g id="Var._3">
	<path fill="none" stroke="#000000" stroke-width="12" stroke-miterlimit="10" d="M199.9976,51.3391
		c-19.3124-27.4218-51.2154-45.3376-87.2989-45.3376c-29.4682,0-56.1429,11.9407-75.4457,31.2533
		C17.9406,56.5577,6,83.2326,6,112.7011c0,36.0839,17.9157,67.987,45.3372,87.2997C23.9157,219.3134,6,251.2166,6,287.3004
		c0,29.4685,11.9406,56.1434,31.253,75.4463C56.5558,382.0594,83.2305,394,112.6987,394c36.0836,0,67.9865-17.9159,87.2989-45.3376
		C219.3101,376.0841,251.213,394,287.2966,394c29.4682,0,56.1429-11.9406,75.4457-31.2533
		c19.3124-19.3029,31.253-45.9778,31.253-75.4463c0-36.0839-17.3968-68.7456-45.3372-87.2997
		c-64.2714-42.6798-156.0645-33.9115-157.8753-108.1546c-0.97-39.7698,34.6169-85.5193,96.5138-85.8447
		c61.9211-0.3254,107.2365,51.5958,106.6987,106.6996"/>
</g>
</svg>
