<?xml version="1.0" encoding="utf-8"?>
<!-- Generator: Adobe Illustrator 18.1.1, SVG Export Plug-In . SVG Version: 6.00 Build 0)  -->
<svg version="1.1" xmlns="http://www.w3.org/2000/svg" xmlns:xlink="http://www.w3.org/1999/xlink" x="0px" y="0px"
	 viewBox="0 0 2800 400" enable-background="new 0 0 2800 400" xml:space="preserve">
<g id="_x28_Logo_Below_x29__Text" display="none">
	<g display="inline">
		<path d="M88.8075,468.9609v10.4395h-76.558v46.4404h71.694v10.4395h-71.694V587.04h77.4581v10.4404H0V468.9609H88.8075z"/>
		<path d="M113.1238,468.9609v128.5195h-11.3484V468.9609H113.1238z"/>
		<path d="M143.386,468.9609v18.1797h-11.3484v-18.1797H143.386z M143.386,504.6006v92.8799h-11.3484v-92.8799H143.386z"/>
		<path d="M231.653,587.9404v9.54h-77.6389v-9.1797l60.7061-74.1602h-56.5634v-9.54h70.9737v8.0996l-61.4264,75.2402H231.653z"/>
		<path d="M244.8017,519c1.9204-3.96,4.5318-7.1992,7.836-9.7197c3.3023-2.5195,7.1744-4.3789,11.6192-5.5801
			c4.4418-1.1982,9.3674-1.7998,14.7709-1.7998c4.0812,0,8.1654,0.3906,12.2495,1.1699c4.0812,0.7822,7.7461,2.25,10.9878,4.4102
			c3.2427,2.1602,5.8834,5.1914,7.9269,9.0898c2.0406,3.9014,3.0619,8.9717,3.0619,15.21v49.3203
			c0,4.5615,2.2204,6.8398,6.6652,6.8398c1.3203,0,2.5215-0.2393,3.6024-0.7197v9.54c-1.3223,0.2412-2.4931,0.4219-3.5124,0.54
			c-1.0213,0.1211-2.3133,0.1797-3.8731,0.1797c-2.882,0-5.1953-0.3877-6.9349-1.1699c-1.7425-0.7793-3.0932-1.8896-4.0529-3.3301
			c-0.9626-1.4404-1.594-3.1504-1.8921-5.1299c-0.301-1.9805-0.4506-4.168-0.4506-6.5703h-0.3596
			c-2.0435,3.001-4.1154,5.6699-6.2147,8.0098c-2.1031,2.3408-4.4448,4.292-7.0258,5.8506c-2.584,1.5605-5.5247,2.7588-8.826,3.5996
			c-3.3052,0.8379-7.2369,1.2598-11.799,1.2598c-4.3236,0-8.3765-0.5117-12.1596-1.5293c-3.7831-1.0186-7.0874-2.6387-9.9079-4.8604
			c-2.8224-2.2188-5.0439-5.04-6.6642-8.46c-1.6213-3.4199-2.4325-7.4697-2.4325-12.1504c0-6.4795,1.4415-11.5479,4.3236-15.21
			c2.8821-3.6582,6.6936-6.4482,11.4384-8.3691c4.7428-1.9189,10.0877-3.2686,16.0327-4.0508
			c5.9439-0.7783,11.9788-1.5293,18.1035-2.25c2.4012-0.2383,4.5034-0.54,6.3046-0.8994c1.8012-0.3604,3.3013-0.9902,4.5034-1.8906
			c1.1992-0.8994,2.1305-2.1289,2.7922-3.6895c0.6587-1.5586,0.991-3.6006,0.991-6.1201c0-3.8389-0.6303-6.9893-1.8921-9.4502
			c-1.2607-2.458-3.0032-4.4102-5.2237-5.8496c-2.2234-1.4404-4.8044-2.4307-7.7461-2.9707
			c-2.9436-0.5391-6.0964-0.8096-9.4564-0.8096c-7.2057,0-13.091,1.71-17.654,5.1299c-4.565,3.4199-6.9662,8.9102-7.2056,16.4697
			h-11.3484C241.7398,527.6406,242.8793,522.9609,244.8017,519z M301.5448,546.7207c-0.7203,1.3213-2.1022,2.2803-4.1428,2.8799
			c-2.0435,0.6016-3.8447,1.0205-5.4045,1.2598c-4.8044,0.8408-9.7584,1.5918-14.8609,2.25
			c-5.1064,0.6611-9.7584,1.6514-13.9608,2.9697c-4.2054,1.3223-7.6562,3.2119-10.3575,5.6699
			c-2.7022,2.4609-4.0538,5.9717-4.0538,10.5303c0,2.8799,0.5688,5.4307,1.7113,7.6504c1.1405,2.2217,2.672,4.1396,4.5943,5.7598
			c1.9194,1.6201,4.1428,2.8516,6.6642,3.6904c2.5224,0.8408,5.1035,1.2598,7.7461,1.2598c4.3236,0,8.4664-0.6582,12.4294-1.9805
			c3.963-1.3184,7.4138-3.2393,10.3584-5.7598c2.9407-2.5195,5.2823-5.5801,7.0248-9.1797
			c1.7396-3.6006,2.6123-7.6787,2.6123-12.2402v-14.7598H301.5448z"/>
		<path d="M344.2364,468.9609v53.2793h0.3606c1.1992-3.3574,2.9104-6.2998,5.1338-8.8193c2.2204-2.5205,4.7741-4.6494,7.6562-6.3906
			c2.8821-1.7383,6.0036-3.0293,9.3665-3.8701c3.3609-0.8379,6.7248-1.2598,10.0877-1.2598c7.0845,0,13.2405,1.3223,18.4642,3.96
			c5.2237,2.6406,9.5756,6.21,13.0597,10.71c3.4821,4.5,6.0632,9.7197,7.7461,15.6602c1.68,5.9404,2.5224,12.2119,2.5224,18.8096
			c0,6.6016-0.8424,12.8701-2.5224,18.8105c-1.6829,5.9395-4.264,11.1602-7.7461,15.6602c-3.4841,4.5-7.836,8.041-13.0597,10.6201
			C390.0816,598.71,383.9256,600,376.8411,600c-7.5653,0-14.3204-1.7402-20.2654-5.2197
			c-5.9439-3.4785-10.2392-8.46-12.8799-14.9395h-0.3596v17.6396h-10.4484V468.9609H344.2364z M405.5728,536.7305
			c-1.1425-4.7393-2.9436-8.9688-5.4035-12.6904c-2.4628-3.7178-5.6156-6.75-9.4573-9.0898
			c-3.8447-2.3398-8.4664-3.5098-13.8709-3.5098c-6.0065,0-11.0777,1.1699-15.2215,3.5098
			c-4.1428,2.3398-7.5067,5.3721-10.0877,9.0898c-2.584,3.7217-4.4438,7.9512-5.5843,12.6904
			c-1.1425,4.7422-1.7112,9.5117-1.7112,14.3096c0,4.8018,0.5688,9.5713,1.7112,14.3105c1.1405,4.7422,3.0003,8.9717,5.5843,12.6895
			c2.5811,3.7217,5.9449,6.75,10.0877,9.0908c4.1438,2.3398,9.215,3.5098,15.2215,3.5098c5.4045,0,10.0262-1.1699,13.8709-3.5098
			c3.8418-2.3408,6.9945-5.3691,9.4573-9.0908c2.4599-3.7178,4.261-7.9473,5.4035-12.6895
			c1.1405-4.7393,1.7113-9.5088,1.7113-14.3105C407.2841,546.2422,406.7134,541.4727,405.5728,536.7305z"/>
		<path d="M441.5982,566.79c1.1395,4.3818,2.972,8.3115,5.4944,11.79c2.5215,3.4824,5.7026,6.3623,9.5473,8.6406
			c3.8418,2.2803,8.4664,3.4199,13.8699,3.4199c8.2866,0,14.7719-2.1602,19.4552-6.4805
			c4.6833-4.3193,7.9259-10.0801,9.7271-17.2793h11.3484c-2.4032,10.5605-6.8167,18.7197-13.2395,24.4795
			C491.3752,597.1201,482.2784,600,470.5097,600c-7.3258,0-13.6617-1.29-19.0036-3.8691
			c-5.3449-2.5791-9.6997-6.1201-13.0607-10.6201c-3.3629-4.5-5.854-9.7207-7.4754-15.6602
			c-1.6213-5.9404-2.4315-12.209-2.4315-18.8105c0-6.1191,0.8102-12.1182,2.4315-18c1.6213-5.8779,4.1125-11.1289,7.4754-15.75
			c3.361-4.6182,7.7158-8.3389,13.0607-11.1592c5.3419-2.8184,11.6778-4.2305,19.0036-4.2305c7.4451,0,13.8093,1.502,19.0945,4.5
			c5.2833,3.001,9.5756,6.9297,12.8799,11.79c3.3013,4.8604,5.6742,10.4404,7.1158,16.7402
			c1.4405,6.2998,2.0406,12.6895,1.8011,19.1699h-71.5141C439.8869,558.1816,440.4557,562.4111,441.5982,566.79z M497.8009,532.1406
			c-1.3819-3.96-3.3326-7.4697-5.854-10.5303c-2.5224-3.0596-5.5843-5.5176-9.1877-7.3799c-3.6023-1.8594-7.6865-2.79-12.2495-2.79
			c-4.6832,0-8.826,0.9307-12.4293,2.79c-3.6024,1.8623-6.6642,4.3203-9.1866,7.3799c-2.5215,3.0605-4.5347,6.6006-6.0349,10.6201
			c-1.5031,4.0215-2.4931,8.1309-2.972,12.3301h60.1657C499.9315,540.2402,499.1799,536.1006,497.8009,532.1406z"/>
		<path d="M560.578,504.6006v9.54h-18.9147v62.6396c0,3.7207,0.5092,6.6318,1.5314,8.7305c1.0183,2.1006,3.572,3.2705,7.6562,3.5098
			c3.2417,0,6.4844-0.1797,9.7271-0.54v9.54c-1.6829,0-3.3639,0.0586-5.0439,0.1797c-1.6829,0.1182-3.3639,0.1807-5.0439,0.1807
			c-7.5663,0-12.8515-1.4688-15.8518-4.4102c-3.0033-2.9395-4.4448-8.3701-4.3236-16.29v-63.54h-16.2125v-9.54h16.2125v-27.8994
			h11.3484v27.8994H560.578z"/>
		<path d="M585.0751,468.9609v51.6592h0.3606c2.1618-5.6387,6.0036-10.1699,11.5283-13.5898
			c5.5228-3.4199,11.5879-5.1299,18.1935-5.1299c6.4854,0,11.9172,0.8408,16.3024,2.5205
			c4.3832,1.6816,7.8956,4.0498,10.5383,7.1094c2.6407,3.0605,4.5034,6.8125,5.5843,11.25
			c1.0809,4.4414,1.6214,9.4219,1.6214,14.9404v59.7598h-11.3484v-57.96c0-3.96-0.3607-7.6504-1.0809-11.0703
			s-1.9819-6.3896-3.7831-8.9102c-1.8011-2.5195-4.2327-4.5-7.2955-5.9395c-3.0619-1.4404-6.8763-2.1602-11.4384-2.1602
			c-4.565,0-8.6188,0.8096-12.1596,2.4297c-3.5437,1.6201-6.5469,3.8418-9.0068,6.6602c-2.4628,2.8213-4.3851,6.1816-5.7641,10.0801
			c-1.382,3.9014-2.1335,8.1309-2.2517,12.6904v54.1797h-11.3484V468.9609H585.0751z"/>
		<path d="M725.5789,571.7402c2.1618,4.4414,5.1338,7.9824,8.9169,10.6201c3.7822,2.6406,8.2553,4.5312,13.4194,5.6699
			c5.1621,1.1416,10.6877,1.71,16.5731,1.71c3.361,0,7.0249-0.4775,10.9879-1.4395c3.963-0.959,7.6562-2.4893,11.0787-4.5898
			c3.4225-2.0986,6.2743-4.7988,8.5563-8.1006c2.2801-3.2988,3.4225-7.29,3.4225-11.9697c0-3.6006-0.8102-6.7188-2.4315-9.3604
			c-1.6213-2.6377-3.7235-4.8594-6.3046-6.6602c-2.584-1.7998-5.4348-3.2676-8.5563-4.4092
			c-3.1244-1.1396-6.1873-2.0703-9.1876-2.79l-28.6418-7.0205c-3.7235-0.959-7.3572-2.1602-10.8979-3.5996
			c-3.5437-1.4404-6.6369-3.3584-9.2766-5.7607c-2.6436-2.3984-4.7741-5.3379-6.3954-8.8193
			c-1.6213-3.4795-2.4315-7.7402-2.4315-12.7803c0-3.1191,0.5991-6.7783,1.8011-10.9795c1.1992-4.1992,3.4509-8.1592,6.7551-11.8799
			c3.3013-3.7188,7.836-6.8682,13.6002-9.4502c5.7641-2.5791,13.1506-3.8701,22.1574-3.8701c6.3632,0,12.4293,0.8408,18.1935,2.5195
			c5.7641,1.6826,10.808,4.2021,15.1315,7.5605c4.3226,3.3604,7.7735,7.5322,10.3575,12.5098
			c2.5811,4.9805,3.873,10.7715,3.873,17.3701h-12.2495c-0.2414-4.9189-1.3506-9.208-3.3326-12.8701
			c-1.981-3.6592-4.565-6.7188-7.7451-9.1797c-3.1841-2.458-6.846-4.3203-10.9888-5.5801
			c-4.1428-1.2598-8.4976-1.8896-13.0597-1.8896c-4.2053,0-8.2582,0.4492-12.1596,1.3496
			c-3.9033,0.9004-7.3259,2.3398-10.2675,4.3203c-2.9437,1.9795-5.3136,4.5898-7.1158,7.8291
			c-1.8011,3.2402-2.7012,7.2617-2.7012,12.0605c0,3.001,0.5092,5.6104,1.5305,7.8301c1.0193,2.2217,2.4325,4.1113,4.2336,5.6699
			c1.8012,1.5605,3.873,2.8203,6.2147,3.7793c2.3416,0.9619,4.8328,1.7412,7.4753,2.3408l31.3441,7.7393
			c4.5621,1.2012,8.8544,2.6719,12.8799,4.4102c4.0216,1.7412,7.5653,3.9014,10.6282,6.4805
			c3.0619,2.582,5.4631,5.7314,7.2047,9.4502c1.7396,3.7207,2.6123,8.2207,2.6123,13.5c0,1.4395-0.1515,3.3604-0.4506,5.7598
			c-0.301,2.4014-1.0212,4.9502-2.1617,7.6494c-1.1425,2.7002-2.7639,5.4316-4.8631,8.1904
			c-2.1031,2.7617-4.9852,5.251-8.6472,7.4697c-3.6639,2.2217-8.1957,4.0225-13.6002,5.4004
			C775.6569,599.3086,769.1716,600,761.6063,600c-7.5663,0-14.5911-0.8711-21.0765-2.6094
			c-6.4844-1.7383-12.0101-4.4102-16.5721-8.0098c-4.5659-3.6006-8.0784-8.2188-10.5382-13.8604
			c-2.4628-5.6387-3.5125-12.4199-3.1519-20.3398h12.2485C722.3949,561.7812,723.4172,567.3027,725.5789,571.7402z"/>
		<path d="M881.9357,517.3809c-4.2043-3.96-10.0877-5.9404-17.653-5.9404c-5.4045,0-10.1493,1.1416-14.2305,3.4199
			c-4.0841,2.2812-7.4763,5.2822-10.1776,9c-2.7022,3.7207-4.7458,7.9512-6.1248,12.6904
			c-1.3819,4.7412-2.0719,9.5703-2.0719,14.4893c0,4.9219,0.69,9.751,2.0719,14.4902c1.379,4.7422,3.4225,8.9717,6.1248,12.6904
			c2.7013,3.7207,6.0935,6.7217,10.1776,9c4.0812,2.2803,8.826,3.4199,14.2305,3.4199c3.4821,0,6.7834-0.6582,9.9079-1.9805
			c3.1205-1.3184,5.8824-3.1494,8.2856-5.4893c2.4012-2.3408,4.3822-5.1309,5.9449-8.3701
			c1.5588-3.2402,2.5214-6.7783,2.882-10.6201h11.3484c-1.5617,11.2803-5.7055,20.0693-12.4293,26.3701
			c-6.7268,6.2998-15.374,9.4492-25.9396,9.4492c-7.0874,0-13.3607-1.29-18.8239-3.8691
			c-5.466-2.5791-10.0604-6.0898-13.7809-10.5303c-3.7235-4.4385-6.5469-9.6299-8.4664-15.5703
			c-1.9224-5.9395-2.8821-12.2676-2.8821-18.9902c0-6.7188,0.9597-13.0498,2.8821-18.9893
			c1.9194-5.9404,4.7429-11.1289,8.4664-15.5703c3.7206-4.4385,8.3149-7.9795,13.7809-10.6201
			c5.4631-2.6377,11.7365-3.96,18.8239-3.96c9.9666,0,18.4016,2.6406,25.3092,7.9199c6.9047,5.2822,11.0162,13.2607,12.3394,23.9404
			h-11.3484C889.0201,526.8027,886.1381,521.3408,881.9357,517.3809z"/>
		<path d="M926.6092,468.9609v51.6592h0.3606c2.1618-5.6387,6.0036-10.1699,11.5283-13.5898
			c5.5228-3.4199,11.5879-5.1299,18.1935-5.1299c6.4854,0,11.9172,0.8408,16.3024,2.5205
			c4.3832,1.6816,7.8956,4.0498,10.5383,7.1094c2.6407,3.0605,4.5034,6.8125,5.5843,11.25
			c1.0809,4.4414,1.6213,9.4219,1.6213,14.9404v59.7598h-11.3484v-57.96c0-3.96-0.3607-7.6504-1.0809-11.0703
			s-1.9819-6.3896-3.7831-8.9102c-1.8011-2.5195-4.2327-4.5-7.2955-5.9395c-3.0619-1.4404-6.8763-2.1602-11.4384-2.1602
			c-4.565,0-8.6188,0.8096-12.1596,2.4297c-3.5437,1.6201-6.5469,3.8418-9.0068,6.6602c-2.4628,2.8213-4.3851,6.1816-5.7642,10.0801
			c-1.3819,3.9014-2.1334,8.1309-2.2516,12.6904v54.1797h-11.3484V468.9609H926.6092z"/>
		<path d="M1020.6384,468.9609v18.1797H1009.29v-18.1797H1020.6384z M1020.6384,504.6006v92.8799H1009.29v-92.8799H1020.6384z"/>
		<path d="M1050.5399,504.6006v16.0195h0.3607c2.1617-5.6387,6.0035-10.1699,11.5282-13.5898
			c5.5227-3.4199,11.5879-5.1299,18.1935-5.1299c6.4854,0,11.9172,0.8408,16.3024,2.5205
			c4.3832,1.6816,7.8956,4.0498,10.5383,7.1094c2.6406,3.0605,4.5034,6.8125,5.5842,11.25
			c1.0809,4.4414,1.6213,9.4219,1.6213,14.9404v59.7598h-11.3484v-57.96c0-3.96-0.3606-7.6504-1.0809-11.0703
			c-0.7202-3.4199-1.9819-6.3896-3.7831-8.9102c-1.8011-2.5195-4.2328-4.5-7.2957-5.9395
			c-3.0619-1.4404-6.8762-2.1602-11.4384-2.1602c-4.5649,0-8.6188,0.8096-12.1595,2.4297c-3.5437,1.6201-6.547,3.8418-9.0068,6.6602
			c-2.4628,2.8213-4.3851,6.1816-5.7642,10.0801c-1.3818,3.9014-2.1334,8.1309-2.2517,12.6904v54.1797h-11.3484v-92.8799H1050.5399z
			"/>
		<path d="M1204.3743,597.4805v-17.6396h-0.3606c-1.2012,3.001-2.972,5.7598-5.3136,8.2793
			c-2.3417,2.5205-5.0155,4.6523-8.0159,6.3906c-3.0033,1.7402-6.2147,3.0879-9.6382,4.0498
			c-3.4225,0.959-6.8167,1.4395-10.1776,1.4395c-7.0864,0-13.2395-1.29-18.4633-3.8691
			c-5.2246-2.5791-9.5785-6.1201-13.0607-10.6201c-3.484-4.5-6.0651-9.7207-7.7451-15.6602
			c-1.6838-5.9404-2.5223-12.209-2.5223-18.8105c0-6.5977,0.8385-12.8691,2.5223-18.8096
			c1.6801-5.9404,4.2611-11.1602,7.7451-15.6602c3.4822-4.5,7.8361-8.0693,13.0607-10.71c5.2238-2.6377,11.3768-3.96,18.4633-3.96
			c3.4822,0,6.8734,0.4219,10.1776,1.2598c3.3024,0.8408,6.3955,2.1318,9.2776,3.8701c2.8821,1.7412,5.4319,3.8701,7.6561,6.3906
			c2.2205,2.5195,3.9318,5.4619,5.1338,8.8193h0.3596v-53.2793h11.3485v128.5195H1204.3743z M1142.1367,565.3506
			c1.1405,4.7422,2.9417,8.9717,5.4044,12.6895c2.46,3.7217,5.6127,6.75,9.4574,9.0908c3.8418,2.3398,8.4664,3.5098,13.8699,3.5098
			c6.0035,0,11.0787-1.1699,15.2216-3.5098c4.1437-2.3408,7.5046-5.3691,10.0876-9.0908c2.5811-3.7178,4.4419-7.9473,5.5844-12.6895
			c1.1405-4.7393,1.7112-9.5088,1.7112-14.3105c0-4.7979-0.5707-9.5674-1.7112-14.3096c-1.1425-4.7393-3.0033-8.9688-5.5844-12.6904
			c-2.583-3.7178-5.944-6.75-10.0876-9.0898c-4.1428-2.3398-9.218-3.5098-15.2216-3.5098c-5.4034,0-10.0281,1.1699-13.8699,3.5098
			c-3.8447,2.3398-6.9974,5.3721-9.4574,9.0898c-2.4628,3.7217-4.2639,7.9512-5.4044,12.6904
			c-1.1425,4.7422-1.7113,9.5117-1.7113,14.3096C1140.4254,555.8418,1140.9943,560.6113,1142.1367,565.3506z"/>
		<path d="M1244.9041,468.9609v128.5195h-11.3485V468.9609H1244.9041z"/>
		<path d="M1272.0134,566.79c1.1395,4.3818,2.9719,8.3115,5.4944,11.79c2.5214,3.4824,5.7025,6.3623,9.5472,8.6406
			c3.8418,2.2803,8.4664,3.4199,13.8699,3.4199c8.2866,0,14.772-2.1602,19.4552-6.4805c4.6832-4.3193,7.9259-10.0801,9.7271-17.2793
			h11.3485c-2.4032,10.5605-6.8168,18.7197-13.2395,24.4795c-6.4258,5.7598-15.5226,8.6396-27.2913,8.6396
			c-7.3258,0-13.6617-1.29-19.0037-3.8691c-5.3448-2.5791-9.6997-6.1201-13.0607-10.6201c-3.3629-4.5-5.854-9.7207-7.4753-15.6602
			c-1.6213-5.9404-2.4315-12.209-2.4315-18.8105c0-6.1191,0.8102-12.1182,2.4315-18c1.6213-5.8779,4.1124-11.1289,7.4753-15.75
			c3.361-4.6182,7.7158-8.3389,13.0607-11.1592c5.3419-2.8184,11.6779-4.2305,19.0037-4.2305c7.4451,0,13.8093,1.502,19.0946,4.5
			c5.2832,3.001,9.5756,6.9297,12.8799,11.79c3.3013,4.8604,5.6742,10.4404,7.1157,16.7402
			c1.4406,6.2998,2.0405,12.6895,1.8011,19.1699h-71.5142C1270.3021,558.1816,1270.871,562.4111,1272.0134,566.79z
			 M1328.2162,532.1406c-1.382-3.96-3.3326-7.4697-5.8541-10.5303c-2.5223-3.0596-5.5842-5.5176-9.1876-7.3799
			c-3.6023-1.8594-7.6865-2.79-12.2495-2.79c-4.6832,0-8.826,0.9307-12.4293,2.79c-3.6023,1.8623-6.6642,4.3203-9.1866,7.3799
			c-2.5215,3.0605-4.5347,6.6006-6.0348,10.6201c-1.5032,4.0215-2.4932,8.1309-2.972,12.3301h60.1658
			C1330.3467,540.2402,1329.5951,536.1006,1328.2162,532.1406z"/>
		<path d="M1364.5132,504.6006v21.7803h0.3596c2.8831-7.5605,7.3552-13.3799,13.4203-17.46
			c6.0632-4.0781,13.2992-5.9404,21.7069-5.5801v11.3398c-5.165-0.2393-9.8483,0.4502-14.0507,2.0693
			c-4.2053,1.6201-7.8361,3.9326-10.8989,6.9307c-3.0619,3.001-5.4348,6.5693-7.1147,10.71
			c-1.6829,4.1396-2.5225,8.6709-2.5225,13.5898v49.5h-11.3484v-92.8799H1364.5132z"/>
	</g>
</g>
<g id="_x28_Logo_Within_x29__Text" display="none">
	<g display="inline">
		<path d="M651.1064,241.9004c-0.4033-9.1963-2.3535-17.1982-5.8506-24c-3.501-6.7969-8.25-12.4971-14.25-17.1001
			c-6-4.5981-13.1523-8.0483-21.4492-10.3501c-8.3018-2.2969-17.3535-3.4497-27.1504-3.4497c-6,0-12.4502,0.7031-19.3496,2.1001
			c-6.9004,1.4014-13.3037,3.853-19.2002,7.3496c-5.9014,3.502-10.7529,8.2031-14.5498,14.1006
			c-3.8018,5.9014-5.7002,13.251-5.7002,22.0498c0,8.6016,2.0996,15.5996,6.2998,21s9.6982,9.75,16.5,13.0498
			c6.7969,3.2998,14.5967,5.9531,23.4004,7.9502c8.7979,2.002,17.6992,3.9004,26.6992,5.7002
			c9.1973,1.7998,18.1504,3.9512,26.8506,6.4492c8.7002,2.5039,16.5,5.9023,23.3994,10.2002
			c6.9004,4.3037,12.4502,9.9004,16.6504,16.7998c4.2002,6.9004,6.2998,15.5537,6.2998,25.9502
			c0,11.2031-2.3994,20.6016-7.2002,28.2002c-4.7998,7.6035-10.8516,13.7998-18.1494,18.5996
			c-7.3037,4.8008-15.4033,8.25-24.2998,10.3506C611.1543,398.9502,602.6045,400,594.4062,400
			c-12.5996,0-24.4033-1.3496-35.4004-4.0498c-11.001-2.7002-20.6016-7.0967-28.7998-13.2002
			c-8.2031-6.0977-14.6533-13.9492-19.3496-23.5498c-4.7021-9.5996-6.9521-21.2998-6.75-35.0996h13.2002
			c-0.6006,11.8027,1.0967,21.75,5.0996,29.8496c3.998,8.1006,9.5488,14.752,16.6504,19.9502
			c7.0967,5.2031,15.4492,8.9531,25.0498,11.25c9.5996,2.3018,19.6963,3.4502,30.2998,3.4502
			c6.3984,0,13.2471-0.7969,20.5498-2.4004c7.2988-1.5986,13.9971-4.2979,20.1006-8.0996c6.0977-3.7969,11.1982-8.7988,15.2998-15
			c4.0967-6.1973,6.1494-13.9971,6.1494-23.4004c0-9-2.0996-16.3496-6.2998-22.0498s-9.75-10.2988-16.6494-13.7998
			c-6.9004-3.4971-14.7002-6.2998-23.4004-8.4004c-8.7002-2.0996-17.6533-4.0498-26.8496-5.8496
			c-9-1.7998-17.9023-3.9004-26.7002-6.2998c-8.8037-2.4004-16.6035-5.6484-23.4004-9.75
			c-6.8018-4.0967-12.2998-9.3984-16.5-15.9004c-4.2002-6.4971-6.2998-14.8496-6.2998-25.0498s2.1465-18.9473,6.4502-26.25
			c4.2979-7.2988,9.8994-13.2002,16.7998-17.7002s14.6484-7.7998,23.25-9.8999c8.5967-2.1001,17.0996-3.1499,25.5-3.1499
			c11.1982,0,21.6465,1.2515,31.3496,3.75c9.6992,2.5029,18.1973,6.4028,25.5,11.6997
			c7.2988,5.3018,13.1484,12.1499,17.5508,20.5503c4.3965,8.4004,6.8994,18.502,7.5,30.2998H651.1064z"/>
		<path d="M806.8037,288.4004c-0.6006-6.7969-2.3535-12.7969-5.25-18c-2.9023-5.1982-6.6523-9.4971-11.25-12.8994
			c-4.6035-3.3984-9.9521-6-16.0508-7.8008c-6.1025-1.7998-12.6514-2.6992-19.6494-2.6992c-9.6006,0-18.1035,1.9492-25.5,5.8496
			c-7.4014,3.9004-13.6035,9.1035-18.6006,15.5996c-5.001,6.502-8.8027,13.9033-11.3994,22.2002
			c-2.6016,8.3018-3.9004,16.8516-3.9004,25.6504c0,10.4014,1.2002,20.001,3.6006,28.7998
			c2.3994,8.8027,6.0977,16.4531,11.0996,22.9502c4.9971,6.501,11.1982,11.5498,18.5996,15.1494
			c7.3975,3.6006,16.0977,5.4004,26.1006,5.4004c7.2002,0,13.8467-1.2002,19.9502-3.6006
			c6.0977-2.3994,11.498-5.6992,16.1992-9.8994c4.6973-4.2002,8.5508-9.249,11.5508-15.1504c3-5.8965,4.9961-12.3467,6-19.3496
			h11.3994c-1.2002,9.2012-3.7031,17.3994-7.5,24.5996c-3.8018,7.2002-8.6016,13.252-14.3994,18.1504
			c-5.8037,4.9033-12.4033,8.6533-19.8008,11.25c-7.4014,2.5967-15.2012,3.8994-23.3994,3.8994c-12.6006,0-23.3535-2.25-32.25-6.75
			c-8.9014-4.5-16.2002-10.5469-21.9004-18.1494c-5.7002-7.5986-9.8994-16.3506-12.5996-26.25
			c-2.7002-9.9004-4.0498-20.25-4.0498-31.0498c0-10.8008,1.5469-21,4.6494-30.6006c3.0986-9.5996,7.6504-18,13.6504-25.1992
			c6-7.2002,13.3965-12.9004,22.2002-17.1006c8.7979-4.2002,18.8994-6.2998,30.2998-6.2998c8.3994,0,16.2471,1.0498,23.5498,3.1504
			c7.2988,2.0996,13.7998,5.25,19.5,9.4492c5.7002,4.2002,10.3496,9.5537,13.9502,16.0508
			c3.5996,6.501,5.7979,14.0527,6.5996,22.6494H806.8037z"/>
		<path d="M850.3027,180.7002v93h0.5996c1.9971-5.7979,4.8467-10.9492,8.5498-15.4492c3.6992-4.5,7.9971-8.3486,12.9004-11.5508
			c4.8984-3.1963,10.2471-5.5967,16.0498-7.1992c5.7988-1.5986,11.7002-2.4004,17.7002-2.4004c9,0,16.6504,1.1016,22.9502,3.2998
			c6.2998,2.2031,11.4463,5.1006,15.4502,8.7002c3.998,3.5996,7.1484,7.6504,9.4492,12.1504
			c2.2969,4.5,3.9473,9.0508,4.9502,13.6494c0.999,4.6035,1.5986,9.0518,1.7998,13.3496c0.1973,4.3037,0.3008,8.0537,0.3008,11.25
			v95.4004h-11.4004v-97.5c0-3.7969-0.2998-8.5967-0.9004-14.3994c-0.5996-5.7988-2.3525-11.3486-5.25-16.6504
			c-2.9014-5.2969-7.3027-9.8486-13.1992-13.6504c-5.9023-3.7969-14.0537-5.6992-24.4502-5.6992
			c-8.8037,0-16.6035,1.6025-23.4004,4.7998c-6.8018,3.2012-12.5996,7.6494-17.3994,13.3496
			c-4.8008,5.7002-8.4521,12.502-10.9502,20.4004c-2.5029,7.9023-3.75,16.5508-3.75,25.9492v83.4004h-11.4004V180.7002H850.3027z"/>
		<path d="M989.8018,211.6006v-30.9004h11.4004v30.9004H989.8018z M989.8018,394.9004V240.7002h11.4004v154.2002H989.8018z"/>
		<path d="M1030.001,240.7002h11.4004v33h0.5996c1.9971-5.7979,4.8467-10.9492,8.5498-15.4492
			c3.6992-4.5,7.9971-8.3486,12.9004-11.5508c4.8984-3.1963,10.2471-5.5967,16.0498-7.1992
			c5.7988-1.5986,11.7002-2.4004,17.7002-2.4004c9,0,16.6504,1.1016,22.9502,3.2998c6.2998,2.2031,11.4463,5.1006,15.4502,8.7002
			c3.998,3.5996,7.1484,7.6504,9.4492,12.1504c2.2969,4.5,3.9473,9.0508,4.9502,13.6494c0.999,4.6035,1.5986,9.0518,1.7998,13.3496
			c0.1973,4.3037,0.3008,8.0537,0.3008,11.25v95.4004h-11.4004v-97.5c0-3.7969-0.2998-8.5967-0.9004-14.3994
			c-0.5996-5.7988-2.3525-11.3486-5.25-16.6504c-2.9014-5.2969-7.3027-9.8486-13.1992-13.6504
			c-5.9023-3.7969-14.0537-5.6992-24.4502-5.6992c-8.8037,0-16.6035,1.6025-23.4004,4.7998
			c-6.8018,3.2012-12.5996,7.6494-17.3994,13.3496c-4.8008,5.7002-8.4521,12.502-10.9502,20.4004
			c-2.5029,7.9023-3.75,16.5508-3.75,25.9492v83.4004h-11.4004V240.7002z"/>
		<path d="M1297.3008,361.9004h-0.6006c-6.4033,12.2012-14.3994,21.3516-24,27.4502c-9.5996,6.0986-21.2998,9.1494-35.0996,9.1494
			c-11.6016,0-21.6006-2.2031-30-6.5996c-8.4004-4.3965-15.2998-10.2988-20.7002-17.7002c-5.4004-7.3965-9.4033-15.9463-12-25.6494
			c-2.6016-9.6992-3.9004-19.8477-3.9004-30.4502c0-11.4004,1.3975-22.0498,4.2002-31.9502
			c2.7988-9.8994,7.0498-18.4502,12.75-25.6494c5.7002-7.2002,12.8486-12.9004,21.4502-17.1006
			c8.5967-4.2002,18.6982-6.2998,30.2998-6.2998c6.1973,0,12.2998,0.8535,18.2998,2.5498c6,1.7021,11.5508,4.1533,16.6504,7.3506
			c5.0996,3.2012,9.5488,7.1992,13.3496,12c3.7969,4.7998,6.6992,10.1992,8.7002,16.1992h0.6006v-94.5h11.3994v214.2002h-11.3994
			V361.9004z M1240,388.6006c9.7969,0,18.249-1.9971,25.3506-6c7.0967-3.999,12.998-9.2998,17.7002-15.9004
			c4.6963-6.5996,8.1982-14.1465,10.5-22.6494c2.2969-8.499,3.4492-17.1475,3.4492-25.9502c0-9-1.1523-17.7471-3.4492-26.25
			c-2.3018-8.498-5.752-16.0967-10.3506-22.7998c-4.6025-6.6982-10.5518-12.0469-17.8496-16.0498c-7.3037-3.999-15.8535-6-25.6504-6
			c-10.2002,0-18.8994,1.9492-26.0996,5.8496s-13.1533,9.1504-17.8506,15.75c-4.7012,6.5996-8.0996,14.2031-10.1992,22.7998
			c-2.1006,8.6016-3.1504,17.5029-3.1504,26.7002c0,9,1.1484,17.751,3.4502,26.25c2.2969,8.5029,5.7979,16.0498,10.5,22.6494
			c4.6963,6.6006,10.6494,11.8506,17.8496,15.75C1221.4004,386.6504,1229.9971,388.6006,1240,388.6006z"/>
		<path d="M1351.6006,180.7002v214.2002h-11.4004V180.7002H1351.6006z"/>
		<path d="M1384.6006,319.3008v1.7998c0,9,1.2002,17.6016,3.6094,25.7998c2.4043,8.2031,5.9629,15.4033,10.6777,21.5996
			c4.7109,6.2021,10.627,11.1006,17.7471,14.7002c7.1162,3.6006,15.3896,5.4004,24.8154,5.4004
			c15.4414,0,27.6758-4.0498,36.6992-12.1504c9.0234-8.0996,15.2383-19.3496,18.6514-33.75h11.3994
			c-3.4023,18-10.7529,31.7998-22.0498,41.4004c-11.3018,9.5996-26.25,14.3994-44.8496,14.3994
			c-11.4004,0-21.3516-2.0527-29.8506-6.1494c-8.5029-4.0967-15.5996-9.6982-21.2998-16.7998
			c-5.7002-7.0977-9.9512-15.4971-12.75-25.2002c-2.8027-9.6982-4.2002-20.1475-4.2002-31.3506
			c0-10.7998,1.4492-21.1494,4.3506-31.0498c2.8965-9.8994,7.2471-18.5996,13.0498-26.0996c5.7988-7.5,13.0498-13.5,21.75-18
			s18.9473-6.75,30.75-6.75c10.7998,0,20.3486,2.002,28.6504,6c8.2969,4.0029,15.248,9.4502,20.8496,16.3496
			c5.5967,6.9004,9.8486,14.9023,12.75,24c2.8965,9.1035,4.3496,18.8535,4.3496,29.25c0,1.0029-0.0508,2.1514-0.1494,3.4502
			c-0.1035,1.3027-0.1504,2.3535-0.1504,3.1504H1384.6006z M1498.001,309.4004c-0.4033-8.4004-1.8047-16.3496-4.21-23.8496
			c-2.4092-7.5-5.9668-14.1006-10.6777-19.7998c-4.7158-5.7002-10.4297-10.2471-17.1475-13.6504
			c-6.7217-3.3984-14.3906-5.0996-23.0107-5.0996c-9.2246,0-17.3486,1.7529-24.3652,5.25
			c-7.0225,3.501-12.9375,8.0996-17.7471,13.7998c-4.8145,5.7002-8.5215,12.3516-11.1279,19.9492
			c-2.6064,7.6035-4.2139,15.4033-4.8145,23.4004H1498.001z"/>
		<path d="M1540,274.9004h0.8994c1.3975-4.9971,3.9473-9.6982,7.6504-14.0996c3.6982-4.3975,8.1982-8.1982,13.5-11.4004
			c5.2969-3.1963,11.1982-5.6484,17.7002-7.3496c6.4971-1.6973,13.2471-2.4473,20.25-2.25v11.3994
			c-6-0.7969-12.8535-0.1963-20.5498,1.8008c-7.7021,2.001-15.0518,6.4023-22.0508,13.1992c-2.8027,3-5.25,5.9023-7.3496,8.7002
			c-2.0996,2.8037-3.8535,5.9014-5.25,9.2998c-1.4014,3.4033-2.5029,7.2002-3.2998,11.4004c-0.8018,4.2002-1.3037,9.2012-1.5,15
			v84.2998h-11.4004V240.7002H1540V274.9004z"/>
	</g>
	<g display="inline">
		<path d="M-1200,182.2007h144v11.4004h-130.7998v85.7993h123v11.4004h-123V385H-1054.5v11.4004H-1200V182.2007z"/>
		<path d="M-1016.1006,182.2007v214.1997h-11.3999V182.2007H-1016.1006z"/>
		<path d="M-973.2007,213.1006v-30.8999h11.3999v30.8999H-973.2007z M-973.2007,396.4004V242.2002h11.3999v154.2002H-973.2007z"/>
		<path d="M-813.3008,386.5v9.9004h-122.3999v-10.7998l103.5-133.5h-95.4004v-9.9004h109.5v10.8008L-921.9009,386.5H-813.3008z"/>
		<path d="M-687.6025,365.8008h-0.6001c-1.7998,4.6025-4.4014,8.9531-7.7998,13.0498c-3.4033,4.1016-7.5518,7.7529-12.4502,10.9502
			c-4.9033,3.2012-10.4531,5.6992-16.6499,7.5C-731.3042,399.1006-738.106,400-745.5024,400
			c-16.4019,0-29.1001-3.5527-38.1001-10.6494s-13.5-18.0469-13.5-32.8506c0-9,1.7998-16.3496,5.3999-22.0498
			s8.147-10.2002,13.6499-13.5c5.4985-3.2998,11.5972-5.6484,18.3003-7.0498c6.6982-1.3965,13.1484-2.4004,19.3496-3l17.7002-1.5
			c8.1982-0.5996,14.6484-1.5469,19.3501-2.8496c4.6968-1.2988,8.25-3.0986,10.6499-5.4004c2.3999-2.2969,3.8999-5.25,4.5-8.8496
			c0.6001-3.6006,0.8999-8.1006,0.8999-13.5c0-4.2002-0.8013-8.1006-2.3999-11.7002c-1.603-3.5996-4.1016-6.7969-7.5-9.5996
			c-3.4033-2.7988-7.7998-4.9971-13.2002-6.6006c-5.3999-1.5986-12-2.3994-19.7998-2.3994
			c-13.7998,0-24.9517,3.4023-33.4502,10.1992c-8.5029,6.8018-13.1528,17.1006-13.9497,30.9004h-11.3999
			c0.7969-16.9971,6.248-29.7471,16.3496-38.25c10.0972-8.498,24.4502-12.75,43.0503-12.75s32.147,3.6514,40.6499,10.9502
			c8.4985,7.3027,12.75,16.8516,12.75,28.6494v89.7002c0,2.2031,0.0469,4.4014,0.1499,6.5996c0.0986,2.2031,0.4502,4.2002,1.0503,6
			c0.5996,1.8008,1.5981,3.2539,3,4.3506c1.3965,1.1016,3.3984,1.6494,6,1.6494c1.9966,0,4.7998-0.2998,8.3999-0.8994v9.5996
			c-3,0.8018-6.103,1.2002-9.3003,1.2002c-4.603,0-8.25-0.5996-10.9497-1.7998c-2.7002-1.2002-4.7534-2.7988-6.1499-4.7998
			c-1.4019-1.9971-2.3535-4.3506-2.8501-7.0508c-0.5015-2.6992-0.75-5.6484-0.75-8.8496V365.8008z M-687.6025,308.8008
			c-2.8032,3.4023-7.0503,5.6992-12.75,6.8994c-5.7002,1.2002-12.0518,2.1006-19.0503,2.7002l-19.1997,1.7998
			c-5.6016,0.6006-11.2031,1.4531-16.8003,2.5498c-5.6016,1.1016-10.6499,2.9531-15.1499,5.5508
			c-4.5,2.6016-8.1514,6.1494-10.9497,10.6494c-2.8032,4.5-4.2002,10.3506-4.2002,17.5498c0,11.4004,3.6001,19.8516,10.7998,25.3506
			c7.2002,5.5029,17.1001,8.25,29.7002,8.25c12.9985,0,23.2969-2.3486,30.8999-7.0498c7.5986-4.6973,13.397-10.0977,17.3999-16.2002
			c3.9985-6.0986,6.5488-12,7.6504-17.7002c1.0967-5.7002,1.6499-9.5488,1.6499-11.5498V308.8008z"/>
		<path d="M-633.3027,182.2007h11.1001v92.6997h0.6001c2.2031-6,5.3105-11.25,9.3232-15.75c4.0078-4.5,8.6201-8.2969,13.833-11.3994
			c5.2124-3.0986,10.8232-5.4004,16.8374-6.9004s12.2295-2.25,18.647-2.25c11.4277,0,21.2998,2.002,29.6201,6
			c8.3154,4.0029,15.2812,9.502,20.897,16.5c5.6157,7.0029,9.7734,15.1504,12.4829,24.4502
			c2.7046,9.2998,4.0591,19.3496,4.0591,30.1494c0,18.4033-2.5078,33.1504-7.5186,44.25
			c-5.0156,11.1006-11.0298,19.6035-18.0425,25.5c-7.0171,5.9014-14.334,9.8018-21.9512,11.7002
			c-7.6221,1.8984-14.1377,2.8496-19.5469,2.8496c-10.2285,0-18.9004-1.6025-26.0156-4.7998
			c-7.1157-3.1963-12.98-6.9463-17.5923-11.25c-4.6128-4.2979-8.1187-8.5498-10.5234-12.75
			c-2.4097-4.2002-3.9097-7.2979-4.5093-9.2998h-0.5908v34.5h-11.1094V182.2007z M-562.9482,390.1006
			c10.2236,0,18.8438-2.1982,25.8657-6.6006c7.0171-4.3965,12.7314-10.1484,17.147-17.25c4.4111-7.0967,7.6172-15.0977,9.6235-24
			c2.0063-8.8965,3.0093-17.7461,3.0093-26.5498c0-8.5967-1.1533-16.8984-3.4595-24.8994
			c-2.3062-7.9971-5.8169-15.1504-10.5278-21.4502c-4.7158-6.2998-10.5283-11.3486-17.4473-15.1504
			c-6.9185-3.7969-14.9858-5.6992-24.2109-5.6992c-10.0264,0-18.75,1.7012-26.1699,5.0996
			c-7.4204,3.4033-13.5376,8.0996-18.3472,14.0996c-4.814,6-8.4233,13.1016-10.8281,21.2998
			c-2.4092,8.2031-3.6094,17.1006-3.6094,26.7002c0,9.4033,1.1016,18.6006,3.3096,27.6006c2.2031,9,5.6626,16.9492,10.3779,23.8496
			c4.7109,6.9004,10.7769,12.4502,18.1968,16.6504C-582.6025,388-573.5791,390.1006-562.9482,390.1006z"/>
		<path d="M-461.1025,320.8008v1.7998c0,9,1.2002,17.6016,3.6094,25.7998c2.4048,8.2031,5.9624,15.4033,10.6782,21.5996
			c4.7109,6.2021,10.6265,11.1006,17.7466,14.7002c7.1157,3.6006,15.3892,5.4004,24.8159,5.4004
			c15.4414,0,27.6758-4.0498,36.6992-12.1504c9.0234-8.0996,15.2383-19.3496,18.6504-33.75h11.4004
			c-3.4023,18-10.7539,31.7998-22.0508,41.4004C-370.854,395.2002-385.8032,400-404.4028,400
			c-11.3999,0-21.3511-2.0527-29.8496-6.1494c-8.5034-4.0967-15.6001-9.6982-21.3003-16.7998
			c-5.6997-7.0977-9.9512-15.4971-12.75-25.2002c-2.8027-9.6982-4.1997-20.1475-4.1997-31.3506
			c0-10.7998,1.4482-21.1494,4.3501-31.0498c2.8965-9.8994,7.2466-18.5996,13.0498-26.0996c5.7983-7.5,13.0498-13.5,21.75-18
			s18.9468-6.75,30.7505-6.75c10.7988,0,20.3477,2.002,28.6504,6c8.2969,4.0029,15.248,9.4502,20.8496,16.3496
			c5.5957,6.9004,9.8477,14.9023,12.75,24c2.8965,9.1035,4.3496,18.8535,4.3496,29.25c0,1.0029-0.0508,2.1514-0.1504,3.4502
			c-0.1035,1.3027-0.1504,2.3535-0.1504,3.1504H-461.1025z M-347.7017,310.9004c-0.4043-8.4004-1.8047-16.3496-4.2109-23.8496
			c-2.4082-7.5-5.9668-14.1006-10.6777-19.7998c-4.7148-5.7002-10.4297-10.2471-17.1465-13.6504
			c-6.7227-3.3984-14.3906-5.0996-23.0117-5.0996c-9.2241,0-17.3477,1.7529-24.3647,5.25
			c-7.022,3.501-12.9375,8.0996-17.7471,13.7998c-4.814,5.7002-8.522,12.3516-11.1279,19.9492
			c-2.6064,7.6035-4.2144,15.4033-4.8145,23.4004H-347.7017z"/>
		<path d="M-249.0034,252.1006h-33.5996v107.7002c0,6.2012,0.6982,11.0996,2.0996,14.6992c1.3965,3.6006,3.5488,6.3516,6.4502,8.25
			c2.8965,1.9033,6.3984,3.0518,10.5,3.4502c4.0967,0.4033,8.8496,0.502,14.25,0.2998v9.9004
			c-5.8037,0.3984-11.4521,0.3467-16.9502-0.1504c-5.5029-0.4961-10.3496-1.9961-14.5498-4.5
			c-4.2002-2.498-7.5518-6.248-10.0498-11.25c-2.5039-4.9961-3.5537-11.8965-3.1504-20.6992V252.1006h-28.5v-9.9004h28.5v-47.9995
			h11.4004v47.9995h33.5996V252.1006z"/>
		<path d="M-212.7075,182.2007v92.9995h0.5996c1.9971-5.7979,4.8467-10.9492,8.5498-15.4492
			c3.6992-4.5,7.9971-8.3486,12.9004-11.5508c4.8984-3.1963,10.2471-5.5967,16.0498-7.1992
			c5.7988-1.5986,11.7002-2.4004,17.7002-2.4004c9,0,16.6504,1.1016,22.9502,3.2998c6.2998,2.2031,11.4463,5.1006,15.4502,8.7002
			c3.998,3.5996,7.1484,7.6504,9.4492,12.1504c2.2969,4.5,3.9473,9.0508,4.9502,13.6494c0.999,4.6035,1.5986,9.0518,1.7998,13.3496
			c0.1973,4.3037,0.3008,8.0537,0.3008,11.25v95.4004h-11.4004v-97.5c0-3.7969-0.2998-8.5967-0.9004-14.3994
			c-0.5996-5.7988-2.3525-11.3486-5.25-16.6504c-2.9014-5.2969-7.3027-9.8486-13.1992-13.6504
			c-5.9023-3.7969-14.0537-5.6992-24.4502-5.6992c-8.8037,0-16.6035,1.6025-23.4004,4.7998
			c-6.8018,3.2012-12.5996,7.6494-17.3994,13.3496c-4.8008,5.7002-8.4521,12.502-10.9502,20.4004
			c-2.5029,7.9023-3.75,16.5508-3.75,25.9492v83.4004h-11.4004V182.2007H-212.7075z"/>
	</g>
</g>
<g id="_x28_Logo_Beside_x29__Text">
	<g>
		<path fill="#4E42BD" d="M1851.1064,236.2998c-0.4033-9.1963-2.3535-17.1982-5.8506-24c-3.501-6.7969-8.25-12.4971-14.25-17.1001
			c-6-4.5981-13.1523-8.0483-21.4492-10.3501c-8.3018-2.2969-17.3535-3.4497-27.1504-3.4497c-6,0-12.4502,0.7031-19.3496,2.1001
			c-6.9004,1.4014-13.3037,3.853-19.2002,7.3496c-5.9014,3.502-10.7529,8.2031-14.5498,14.1006
			c-3.8018,5.9014-5.7002,13.251-5.7002,22.0498c0,8.6016,2.0996,15.5996,6.2998,21s9.6982,9.75,16.5,13.0498
			c6.7969,3.2998,14.5967,5.9531,23.4004,7.9502c8.7979,2.002,17.6992,3.9004,26.6992,5.7002
			c9.1973,1.7998,18.1504,3.9512,26.8506,6.4492c8.7002,2.5039,16.5,5.9023,23.3994,10.2002
			c6.9004,4.3037,12.4502,9.9004,16.6504,16.7998c4.2002,6.9004,6.2998,15.5537,6.2998,25.9502
			c0,11.2031-2.3994,20.6016-7.2002,28.2002c-4.7998,7.6035-10.8516,13.7998-18.1494,18.5996
			c-7.3037,4.8008-15.4033,8.25-24.2998,10.3506c-8.9023,2.0996-17.4521,3.1494-25.6504,3.1494
			c-12.5996,0-24.4033-1.3496-35.4004-4.0498c-11.001-2.7002-20.6016-7.0967-28.7998-13.2002
			c-8.2031-6.0977-14.6533-13.9492-19.3496-23.5498c-4.7021-9.5996-6.9521-21.2998-6.75-35.0996h13.2002
			c-0.6006,11.8027,1.0967,21.75,5.0996,29.8496c3.998,8.1006,9.5488,14.752,16.6504,19.9502
			c7.0967,5.2031,15.4492,8.9531,25.0498,11.25c9.5996,2.3018,19.6963,3.4502,30.2998,3.4502
			c6.3984,0,13.2471-0.7969,20.5498-2.4004c7.2988-1.5986,13.9971-4.2979,20.1006-8.0996c6.0977-3.7969,11.1982-8.7988,15.2998-15
			c4.0967-6.1973,6.1494-13.9971,6.1494-23.4004c0-9-2.0996-16.3496-6.2998-22.0498s-9.75-10.2988-16.6494-13.7998
			c-6.9004-3.4971-14.7002-6.2998-23.4004-8.4004c-8.7002-2.0996-17.6533-4.0498-26.8496-5.8496
			c-9-1.7998-17.9023-3.9004-26.7002-6.2998c-8.8037-2.4004-16.6035-5.6484-23.4004-9.75
			c-6.8018-4.0967-12.2998-9.3984-16.5-15.9004c-4.2002-6.4971-6.2998-14.8496-6.2998-25.0498s2.1465-18.9473,6.4502-26.25
			c4.2979-7.2988,9.8994-13.2002,16.7998-17.7002s14.6484-7.7998,23.25-9.8999c8.5967-2.1001,17.0996-3.1499,25.5-3.1499
			c11.1982,0,21.6465,1.2515,31.3496,3.75c9.6992,2.5029,18.1973,6.4028,25.5,11.6997
			c7.2988,5.3018,13.1484,12.1499,17.5508,20.5503c4.3965,8.4004,6.8994,18.502,7.5,30.2998H1851.1064z"/>
		<path fill="#4E42BD" d="M2006.8037,282.7998c-0.6006-6.7969-2.3535-12.7969-5.25-18c-2.9023-5.1982-6.6523-9.4971-11.25-12.8994
			c-4.6035-3.3984-9.9521-6-16.0508-7.8008c-6.1025-1.7998-12.6514-2.6992-19.6494-2.6992c-9.6006,0-18.1035,1.9492-25.5,5.8496
			c-7.4014,3.9004-13.6035,9.1035-18.6006,15.5996c-5.001,6.502-8.8027,13.9033-11.3994,22.2002
			c-2.6016,8.3018-3.9004,16.8516-3.9004,25.6504c0,10.4014,1.2002,20.001,3.6006,28.7998
			c2.3994,8.8027,6.0977,16.4531,11.0996,22.9502c4.9971,6.501,11.1982,11.5498,18.5996,15.1494
			c7.3975,3.6006,16.0977,5.4004,26.1006,5.4004c7.2002,0,13.8467-1.2002,19.9502-3.6006
			c6.0977-2.3994,11.498-5.6992,16.1992-9.8994c4.6973-4.2002,8.5508-9.249,11.5508-15.1504c3-5.8965,4.9961-12.3467,6-19.3496
			h11.3994c-1.2002,9.2012-3.7031,17.3994-7.5,24.5996c-3.8018,7.2002-8.6016,13.252-14.3994,18.1504
			c-5.8037,4.9033-12.4033,8.6533-19.8008,11.25c-7.4014,2.5967-15.2012,3.8994-23.3994,3.8994c-12.6006,0-23.3535-2.25-32.25-6.75
			c-8.9014-4.5-16.2002-10.5469-21.9004-18.1494c-5.7002-7.5986-9.8994-16.3506-12.5996-26.25
			c-2.7002-9.9004-4.0498-20.25-4.0498-31.0498c0-10.8008,1.5469-21,4.6494-30.6006c3.0986-9.5996,7.6504-18,13.6504-25.1992
			c6-7.2002,13.3965-12.9004,22.2002-17.1006c8.7979-4.2002,18.8994-6.2998,30.2998-6.2998c8.3994,0,16.2471,1.0498,23.5498,3.1504
			c7.2988,2.0996,13.7998,5.25,19.5,9.4492c5.7002,4.2002,10.3496,9.5537,13.9502,16.0508
			c3.5996,6.501,5.7979,14.0527,6.5996,22.6494H2006.8037z"/>
		<path fill="#4E42BD" d="M2050.3027,175.0996v93h0.5996c1.9971-5.7979,4.8467-10.9492,8.5498-15.4492
			c3.6992-4.5,7.9971-8.3486,12.9004-11.5508c4.8984-3.1963,10.2471-5.5967,16.0498-7.1992
			c5.7988-1.5986,11.7002-2.4004,17.7002-2.4004c9,0,16.6504,1.1016,22.9502,3.2998c6.2998,2.2031,11.4463,5.1006,15.4502,8.7002
			c3.998,3.5996,7.1484,7.6504,9.4492,12.1504c2.2969,4.5,3.9473,9.0508,4.9502,13.6494c0.999,4.6035,1.5986,9.0518,1.7998,13.3496
			c0.1973,4.3037,0.3008,8.0537,0.3008,11.25v95.4004h-11.4004v-97.5c0-3.7969-0.2998-8.5967-0.9004-14.3994
			c-0.5996-5.7988-2.3525-11.3486-5.25-16.6504c-2.9014-5.2969-7.3027-9.8486-13.1992-13.6504
			c-5.9023-3.7969-14.0537-5.6992-24.4502-5.6992c-8.8037,0-16.6035,1.6025-23.4004,4.7998
			c-6.8018,3.2012-12.5996,7.6494-17.3994,13.3496c-4.8008,5.7002-8.4521,12.502-10.9502,20.4004
			c-2.5029,7.9023-3.75,16.5508-3.75,25.9492v83.4004h-11.4004V175.0996H2050.3027z"/>
		<path fill="#4E42BD" d="M2189.8018,206v-30.9004h11.4004V206H2189.8018z M2189.8018,389.2998V235.0996h11.4004v154.2002H2189.8018
			z"/>
		<path fill="#4E42BD" d="M2230.001,235.0996h11.4004v33h0.5996c1.9971-5.7979,4.8467-10.9492,8.5498-15.4492
			c3.6992-4.5,7.9971-8.3486,12.9004-11.5508c4.8984-3.1963,10.2471-5.5967,16.0498-7.1992
			c5.7988-1.5986,11.7002-2.4004,17.7002-2.4004c9,0,16.6504,1.1016,22.9502,3.2998c6.2998,2.2031,11.4463,5.1006,15.4502,8.7002
			c3.998,3.5996,7.1484,7.6504,9.4492,12.1504c2.2969,4.5,3.9473,9.0508,4.9502,13.6494c0.999,4.6035,1.5986,9.0518,1.7998,13.3496
			c0.1973,4.3037,0.3008,8.0537,0.3008,11.25v95.4004h-11.4004v-97.5c0-3.7969-0.2998-8.5967-0.9004-14.3994
			c-0.5996-5.7988-2.3525-11.3486-5.25-16.6504c-2.9014-5.2969-7.3027-9.8486-13.1992-13.6504
			c-5.9023-3.7969-14.0537-5.6992-24.4502-5.6992c-8.8037,0-16.6035,1.6025-23.4004,4.7998
			c-6.8018,3.2012-12.5996,7.6494-17.3994,13.3496c-4.8008,5.7002-8.4521,12.502-10.9502,20.4004
			c-2.5029,7.9023-3.75,16.5508-3.75,25.9492v83.4004h-11.4004V235.0996z"/>
		<path fill="#4E42BD" d="M2497.3008,356.2998h-0.6006c-6.4033,12.2012-14.3994,21.3516-24,27.4502
			c-9.5996,6.0986-21.2998,9.1494-35.0996,9.1494c-11.6016,0-21.6006-2.2031-30-6.5996
			c-8.4004-4.3965-15.2998-10.2988-20.7002-17.7002c-5.4004-7.3965-9.4033-15.9463-12-25.6494
			C2372.2988,333.251,2371,323.1025,2371,312.5c0-11.4004,1.3975-22.0498,4.2002-31.9502
			c2.7988-9.8994,7.0498-18.4502,12.75-25.6494c5.7002-7.2002,12.8486-12.9004,21.4502-17.1006
			c8.5967-4.2002,18.6982-6.2998,30.2998-6.2998c6.1973,0,12.2998,0.8535,18.2998,2.5498c6,1.7021,11.5508,4.1533,16.6504,7.3506
			c5.0996,3.2012,9.5488,7.1992,13.3496,12c3.7969,4.7998,6.6992,10.1992,8.7002,16.1992h0.6006v-94.5h11.3994v214.2002h-11.3994
			V356.2998z M2440,383c9.7969,0,18.249-1.9971,25.3506-6c7.0967-3.999,12.998-9.2998,17.7002-15.9004
			c4.6963-6.5996,8.1982-14.1465,10.5-22.6494c2.2969-8.499,3.4492-17.1475,3.4492-25.9502c0-9-1.1523-17.7471-3.4492-26.25
			c-2.3018-8.498-5.752-16.0967-10.3506-22.7998c-4.6025-6.6982-10.5518-12.0469-17.8496-16.0498c-7.3037-3.999-15.8535-6-25.6504-6
			c-10.2002,0-18.8994,1.9492-26.0996,5.8496s-13.1533,9.1504-17.8506,15.75c-4.7012,6.5996-8.0996,14.2031-10.1992,22.7998
			c-2.1006,8.6016-3.1504,17.5029-3.1504,26.7002c0,9,1.1484,17.751,3.4502,26.25c2.2969,8.5029,5.7979,16.0498,10.5,22.6494
			c4.6963,6.6006,10.6494,11.8506,17.8496,15.75C2421.4004,381.0498,2429.9971,383,2440,383z"/>
		<path fill="#4E42BD" d="M2551.6006,175.0996v214.2002h-11.4004V175.0996H2551.6006z"/>
		<path fill="#4E42BD" d="M2584.6006,313.7002V315.5c0,9,1.2002,17.6016,3.6094,25.7998
			c2.4043,8.2031,5.9629,15.4033,10.6777,21.5996c4.7109,6.2021,10.627,11.1006,17.7471,14.7002
			c7.1162,3.6006,15.3896,5.4004,24.8154,5.4004c15.4414,0,27.6758-4.0498,36.6992-12.1504
			c9.0234-8.0996,15.2383-19.3496,18.6514-33.75h11.3994c-3.4023,18-10.7529,31.7998-22.0498,41.4004
			c-11.3018,9.5996-26.25,14.3994-44.8496,14.3994c-11.4004,0-21.3516-2.0527-29.8506-6.1494
			c-8.5029-4.0967-15.5996-9.6982-21.2998-16.7998c-5.7002-7.0977-9.9512-15.4971-12.75-25.2002
			c-2.8027-9.6982-4.2002-20.1475-4.2002-31.3506c0-10.7998,1.4492-21.1494,4.3506-31.0498
			c2.8965-9.8994,7.2471-18.5996,13.0498-26.0996c5.7988-7.5,13.0498-13.5,21.75-18s18.9473-6.75,30.75-6.75
			c10.7998,0,20.3486,2.002,28.6504,6c8.2969,4.0029,15.248,9.4502,20.8496,16.3496c5.5967,6.9004,9.8486,14.9023,12.75,24
			c2.8965,9.1035,4.3496,18.8535,4.3496,29.25c0,1.0029-0.0508,2.1514-0.1494,3.4502c-0.1035,1.3027-0.1504,2.3535-0.1504,3.1504
			H2584.6006z M2698.001,303.7998c-0.4033-8.4004-1.8047-16.3496-4.21-23.8496c-2.4092-7.5-5.9668-14.1006-10.6777-19.7998
			c-4.7158-5.7002-10.4297-10.2471-17.1475-13.6504c-6.7217-3.3984-14.3906-5.0996-23.0107-5.0996
			c-9.2246,0-17.3486,1.7529-24.3652,5.25c-7.0225,3.501-12.9375,8.0996-17.7471,13.7998
			c-4.8145,5.7002-8.5215,12.3516-11.1279,19.9492c-2.6064,7.6035-4.2139,15.4033-4.8145,23.4004H2698.001z"/>
		<path fill="#4E42BD" d="M2740,269.2998h0.8994c1.3975-4.9971,3.9473-9.6982,7.6504-14.0996
			c3.6982-4.3975,8.1982-8.1982,13.5-11.4004c5.2969-3.1963,11.1982-5.6484,17.7002-7.3496c6.4971-1.6973,13.2471-2.4473,20.25-2.25
			v11.3994c-6-0.7969-12.8535-0.1963-20.5498,1.8008c-7.7021,2.001-15.0518,6.4023-22.0508,13.1992
			c-2.8027,3-5.25,5.9023-7.3496,8.7002c-2.0996,2.8037-3.8535,5.9014-5.25,9.2998c-1.4014,3.4033-2.5029,7.2002-3.2998,11.4004
			c-0.8018,4.2002-1.3037,9.2012-1.5,15v84.2998h-11.4004V235.0996H2740V269.2998z"/>
	</g>
	<g>
		<path fill="#4E42BD" d="M512.0073,176.6001h144v11.4004H525.2075v85.7993h123v11.4004h-123v94.1992h132.2998v11.4004h-145.5
			V176.6001z"/>
		<path fill="#4E42BD" d="M695.9067,176.6001v214.1997h-11.3999V176.6001H695.9067z"/>
		<path fill="#4E42BD" d="M738.8066,207.5v-30.8999h11.3999V207.5H738.8066z M738.8066,390.7998V236.5996h11.3999v154.2002H738.8066
			z"/>
		<path fill="#4E42BD" d="M898.7065,380.8994v9.9004H776.3066V380l103.5-133.5h-95.4004v-9.9004h109.5v10.8008l-103.7998,133.499
			H898.7065z"/>
		<path fill="#4E42BD" d="M1024.4048,360.2002h-0.6001c-1.7998,4.6025-4.4014,8.9531-7.7998,13.0498
			c-3.4033,4.1016-7.5518,7.7529-12.4502,10.9502c-4.9033,3.2012-10.4531,5.6992-16.6499,7.5
			c-6.2017,1.7998-13.0034,2.6992-20.3999,2.6992c-16.4019,0-29.1001-3.5527-38.1001-10.6494s-13.5-18.0469-13.5-32.8506
			c0-9,1.7998-16.3496,5.3999-22.0498s8.147-10.2002,13.6499-13.5c5.4985-3.2998,11.5972-5.6484,18.3003-7.0498
			c6.6982-1.3965,13.1484-2.4004,19.3496-3l17.7002-1.5c8.1982-0.5996,14.6484-1.5469,19.3501-2.8496
			c4.6968-1.2988,8.25-3.0986,10.6499-5.4004c2.3999-2.2969,3.8999-5.25,4.5-8.8496c0.6001-3.6006,0.8999-8.1006,0.8999-13.5
			c0-4.2002-0.8013-8.1006-2.3999-11.7002c-1.603-3.5996-4.1016-6.7969-7.5-9.5996c-3.4033-2.7988-7.7998-4.9971-13.2002-6.6006
			c-5.3999-1.5986-12-2.3994-19.7998-2.3994c-13.7998,0-24.9517,3.4023-33.4502,10.1992
			c-8.5029,6.8018-13.1528,17.1006-13.9497,30.9004h-11.3999c0.7969-16.9971,6.248-29.7471,16.3496-38.25
			c10.0972-8.498,24.4502-12.75,43.0503-12.75s32.147,3.6514,40.6499,10.9502c8.4985,7.3027,12.75,16.8516,12.75,28.6494v89.7002
			c0,2.2031,0.0469,4.4014,0.1499,6.5996c0.0986,2.2031,0.4502,4.2002,1.0503,6c0.5996,1.8008,1.5981,3.2539,3,4.3506
			c1.3965,1.1016,3.3984,1.6494,6,1.6494c1.9966,0,4.7998-0.2998,8.3999-0.8994v9.5996c-3,0.8018-6.103,1.2002-9.3003,1.2002
			c-4.603,0-8.25-0.5996-10.9497-1.7998c-2.7002-1.2002-4.7534-2.7988-6.1499-4.7998c-1.4019-1.9971-2.3535-4.3506-2.8501-7.0508
			c-0.5015-2.6992-0.75-5.6484-0.75-8.8496V360.2002z M1024.4048,303.2002c-2.8032,3.4023-7.0503,5.6992-12.75,6.8994
			c-5.7002,1.2002-12.0518,2.1006-19.0503,2.7002l-19.1997,1.7998c-5.6016,0.6006-11.2031,1.4531-16.8003,2.5498
			c-5.6016,1.1016-10.6499,2.9531-15.1499,5.5508c-4.5,2.6016-8.1514,6.1494-10.9497,10.6494
			c-2.8032,4.5-4.2002,10.3506-4.2002,17.5498c0,11.4004,3.6001,19.8516,10.7998,25.3506c7.2002,5.5029,17.1001,8.25,29.7002,8.25
			c12.9985,0,23.2969-2.3486,30.8999-7.0498c7.5986-4.6973,13.397-10.0977,17.3999-16.2002c3.9985-6.0986,6.5488-12,7.6504-17.7002
			c1.0967-5.7002,1.6499-9.5488,1.6499-11.5498V303.2002z"/>
		<path fill="#4E42BD" d="M1078.7046,176.6001h11.1001v92.6997h0.6001c2.2031-6,5.3105-11.25,9.3232-15.75
			c4.0078-4.5,8.6201-8.2969,13.833-11.3994c5.2124-3.0986,10.8232-5.4004,16.8374-6.9004s12.2295-2.25,18.647-2.25
			c11.4277,0,21.2998,2.002,29.6201,6c8.3154,4.0029,15.2812,9.502,20.897,16.5c5.6157,7.0029,9.7734,15.1504,12.4829,24.4502
			c2.7046,9.2998,4.0591,19.3496,4.0591,30.1494c0,18.4033-2.5078,33.1504-7.5186,44.25
			c-5.0156,11.1006-11.0298,19.6035-18.0425,25.5c-7.0171,5.9014-14.334,9.8018-21.9512,11.7002
			c-7.6221,1.8984-14.1377,2.8496-19.5469,2.8496c-10.2285,0-18.9004-1.6025-26.0156-4.7998
			c-7.1157-3.1963-12.98-6.9463-17.5923-11.25c-4.6128-4.2979-8.1187-8.5498-10.5234-12.75
			c-2.4097-4.2002-3.9097-7.2979-4.5093-9.2998h-0.5908v34.5h-11.1094V176.6001z M1149.0591,384.5
			c10.2236,0,18.8438-2.1982,25.8657-6.6006c7.0171-4.3965,12.7314-10.1484,17.147-17.25c4.4111-7.0967,7.6172-15.0977,9.6235-24
			c2.0063-8.8965,3.0093-17.7461,3.0093-26.5498c0-8.5967-1.1533-16.8984-3.4595-24.8994
			c-2.3062-7.9971-5.8169-15.1504-10.5278-21.4502c-4.7158-6.2998-10.5283-11.3486-17.4473-15.1504
			c-6.9185-3.7969-14.9858-5.6992-24.2109-5.6992c-10.0264,0-18.75,1.7012-26.1699,5.0996
			c-7.4204,3.4033-13.5376,8.0996-18.3472,14.0996c-4.814,6-8.4233,13.1016-10.8281,21.2998
			c-2.4092,8.2031-3.6094,17.1006-3.6094,26.7002c0,9.4033,1.1016,18.6006,3.3096,27.6006c2.2031,9,5.6626,16.9492,10.3779,23.8496
			c4.7109,6.9004,10.7769,12.4502,18.1968,16.6504C1129.4048,382.3994,1138.4282,384.5,1149.0591,384.5z"/>
		<path fill="#4E42BD" d="M1250.9048,315.2002V317c0,9,1.2002,17.6016,3.6094,25.7998c2.4048,8.2031,5.9624,15.4033,10.6782,21.5996
			c4.7109,6.2021,10.6265,11.1006,17.7466,14.7002c7.1157,3.6006,15.3892,5.4004,24.8159,5.4004
			c15.4414,0,27.6758-4.0498,36.6992-12.1504c9.0234-8.0996,15.2383-19.3496,18.6504-33.75h11.4004
			c-3.4023,18-10.7539,31.7998-22.0508,41.4004c-11.3008,9.5996-26.25,14.3994-44.8496,14.3994
			c-11.3999,0-21.3511-2.0527-29.8496-6.1494c-8.5034-4.0967-15.6001-9.6982-21.3003-16.7998
			c-5.6997-7.0977-9.9512-15.4971-12.75-25.2002c-2.8027-9.6982-4.1997-20.1475-4.1997-31.3506
			c0-10.7998,1.4482-21.1494,4.3501-31.0498c2.8965-9.8994,7.2466-18.5996,13.0498-26.0996c5.7983-7.5,13.0498-13.5,21.75-18
			s18.9468-6.75,30.7505-6.75c10.7988,0,20.3477,2.002,28.6504,6c8.2969,4.0029,15.248,9.4502,20.8496,16.3496
			c5.5957,6.9004,9.8477,14.9023,12.75,24c2.8965,9.1035,4.3496,18.8535,4.3496,29.25c0,1.0029-0.0508,2.1514-0.1504,3.4502
			c-0.1035,1.3027-0.1504,2.3535-0.1504,3.1504H1250.9048z M1364.3057,305.2998c-0.4043-8.4004-1.8047-16.3496-4.2109-23.8496
			c-2.4082-7.5-5.9668-14.1006-10.6777-19.7998c-4.7148-5.7002-10.4297-10.2471-17.1465-13.6504
			c-6.7227-3.3984-14.3906-5.0996-23.0117-5.0996c-9.2241,0-17.3477,1.7529-24.3647,5.25
			c-7.022,3.501-12.9375,8.0996-17.7471,13.7998c-4.814,5.7002-8.522,12.3516-11.1279,19.9492
			c-2.6064,7.6035-4.2144,15.4033-4.8145,23.4004H1364.3057z"/>
		<path fill="#4E42BD" d="M1463.0039,246.5h-33.5996v107.7002c0,6.2012,0.6982,11.0996,2.0996,14.6992
			c1.3965,3.6006,3.5488,6.3516,6.4502,8.25c2.8965,1.9033,6.3984,3.0518,10.5,3.4502c4.0967,0.4033,8.8496,0.502,14.25,0.2998
			v9.9004c-5.8037,0.3984-11.4521,0.3467-16.9502-0.1504c-5.5029-0.4961-10.3496-1.9961-14.5498-4.5
			c-4.2002-2.498-7.5518-6.248-10.0498-11.25c-2.5039-4.9961-3.5537-11.8965-3.1504-20.6992V246.5h-28.5v-9.9004h28.5v-47.9995
			h11.4004v47.9995h33.5996V246.5z"/>
		<path fill="#4E42BD" d="M1499.2998,176.6001v92.9995h0.5996c1.9971-5.7979,4.8467-10.9492,8.5498-15.4492
			c3.6992-4.5,7.9971-8.3486,12.9004-11.5508c4.8984-3.1963,10.2471-5.5967,16.0498-7.1992
			c5.7988-1.5986,11.7002-2.4004,17.7002-2.4004c9,0,16.6504,1.1016,22.9502,3.2998c6.2998,2.2031,11.4463,5.1006,15.4502,8.7002
			c3.998,3.5996,7.1484,7.6504,9.4492,12.1504c2.2969,4.5,3.9473,9.0508,4.9502,13.6494c0.999,4.6035,1.5986,9.0518,1.7998,13.3496
			c0.1973,4.3037,0.3008,8.0537,0.3008,11.25v95.4004h-11.4004v-97.5c0-3.7969-0.2998-8.5967-0.9004-14.3994
			c-0.5996-5.7988-2.3525-11.3486-5.25-16.6504c-2.9014-5.2969-7.3027-9.8486-13.1992-13.6504
			c-5.9023-3.7969-14.0537-5.6992-24.4502-5.6992c-8.8037,0-16.6035,1.6025-23.4004,4.7998
			c-6.8018,3.2012-12.5996,7.6494-17.3994,13.3496c-4.8008,5.7002-8.4521,12.502-10.9502,20.4004
			c-2.5029,7.9023-3.75,16.5508-3.75,25.9492v83.4004h-11.4004V176.6001H1499.2998z"/>
	</g>
</g>
<g id="Logo">
	<path fill="none" stroke="#4E42BD" stroke-width="13" stroke-miterlimit="10" d="M199.9976,51.3391
		c-19.3124-27.4218-51.2154-45.3376-87.2989-45.3376c-29.4682,0-56.1429,11.9407-75.4457,31.2533
		C17.9406,56.5577,6,83.2326,6,112.7011c0,36.0839,17.9157,67.987,45.3372,87.2997C23.9157,219.3134,6,251.2166,6,287.3004
		c0,29.4685,11.9406,56.1434,31.253,75.4463C56.5558,382.0594,83.2305,394,112.6987,394c36.0836,0,67.9865-17.9159,87.2989-45.3376
		C219.3101,376.0841,251.213,394,287.2966,394c29.4682,0,56.1429-11.9406,75.4457-31.2533
		c19.3124-19.3029,31.253-45.9778,31.253-75.4463c0-36.0839-17.3968-68.7456-45.3372-87.2997
		c-64.2714-42.6798-156.0645-33.9115-157.8753-108.1546c-0.97-39.7698,34.6169-85.5193,96.5138-85.8447
		c61.9211-0.3254,107.2365,51.5958,106.6987,106.6996"/>
</g>
</svg>
