<svg width="720px" height="120px" xmlns="http://www.w3.org/2000/svg" xmlns:xlink="http://www.w3.org/1999/xlink">
<g style="">  <path d="M334.242866,45.976750 C343.814852,43.623006,350.921842,41.134799,355.564049,38.512056 C360.206257,35.889313,362.527326,33.048050,362.527326,29.988182 C362.527326,28.105187,361.757060,26.617307,360.216504,25.524497 C358.675949,24.431687,356.591095,23.885291,353.961880,23.885291 C347.840739,23.885291,342.500226,25.465638,337.940181,28.626380 C333.380137,31.787122,331.100149,35.435371,331.100149,39.571236 C331.100149,40.949857,331.356904,42.151930,331.870423,43.177490 C332.383941,44.203050,333.174748,45.136127,334.242866,45.976750 ZM342.808313,53.088384 C340.014772,52.886635,337.395867,52.466330,334.951518,51.827456 C332.507170,51.188583,330.216912,50.297536,328.080675,49.154289 C323.109815,50.230286,318.354705,51.037272,313.815201,51.575271 C309.275697,52.113269,304.931396,52.382264,300.782166,52.382264 C290.881529,52.382264,283.065894,51.028882,277.335027,48.322076 C271.604160,45.615270,268.738770,41.941803,268.738770,37.301565 C268.738770,32.930326,271.439837,29.357732,276.842052,26.583677 C282.244267,23.809621,289.299905,22.422614,298.009180,22.422614 C301.788676,22.422614,305.763250,22.683203,309.933021,23.204390 C314.102791,23.725576,318.426552,24.490531,322.904434,25.499279 L323.274165,26.054087 L323.027678,26.961955 L322.288215,27.163704 C318.221148,26.289456,314.328736,25.625374,310.610862,25.171437 C306.892987,24.717501,303.370303,24.490536,300.042703,24.490536 C292.935606,24.490536,287.369149,25.675797,283.343164,28.046353 C279.317178,30.416910,277.304216,33.670072,277.304216,37.805936 C277.304216,41.807301,279.491772,44.892341,283.866950,47.061148 C288.242128,49.229955,294.435069,50.314342,302.445958,50.314342 C306.102210,50.314342,309.912460,50.078972,313.876823,49.608223 C317.841186,49.137474,321.939003,48.448174,326.170395,47.540301 C324.773625,46.531553,323.726063,45.371511,323.027678,44.060139 C322.329292,42.748768,321.980105,41.252481,321.980105,39.571236 C321.980105,36.914867,322.924965,34.561158,324.814713,32.510038 C326.704461,30.458919,329.847148,28.374205,334.242866,26.255835 C337.036407,24.877214,340.374228,23.792827,344.256428,23.002641 C348.138628,22.212456,352.031040,21.817369,355.933781,21.817369 C360.165174,21.817369,363.451643,22.456233,365.793288,23.733979 C368.134932,25.011726,369.305737,26.777008,369.305737,29.029877 C369.305737,32.358744,366.522508,35.561469,360.955967,38.638149 C355.389426,41.714829,347.080821,44.682183,336.029902,47.540301 C337.673161,48.616298,339.583422,49.524157,341.760740,50.263905 C343.938059,51.003653,346.731558,51.642517,350.141321,52.180516 L350.634296,52.684887 L350.634296,53.744067 L350.018077,54.046689 C337.364980,55.492561,327.135844,58.644849,319.330363,63.503650 C311.524881,68.362450,307.622199,73.851635,307.622199,79.971370 C307.622199,83.972735,309.440027,87.125024,313.075738,89.428330 C316.711449,91.731637,321.713045,92.883273,328.080675,92.883273 C335.269934,92.883273,341.421794,91.479454,346.536439,88.671774 C351.651083,85.864093,354.208367,82.577307,354.208367,78.811316 C354.208367,76.592072,353.212156,74.818384,351.219704,73.490200 C349.227252,72.162016,346.608347,71.497934,343.362910,71.497934 C340.405043,71.497934,337.067223,72.178828,333.349349,73.540637 C329.631474,74.902446,325.389875,77.012378,320.624423,79.870496 L320.008204,79.769622 L319.330363,79.013065 L319.453607,78.407819 C324.999607,74.877203,330.155256,72.237687,334.920708,70.489191 C339.686160,68.740696,344.122893,67.866461,348.231041,67.866461 C352.257027,67.866461,355.584577,68.715477,358.213792,70.413535 C360.843007,72.111594,362.157594,74.221526,362.157594,76.743394 C362.157594,78.760889,361.397598,80.711105,359.877584,82.594100 C358.357569,84.477096,356.036500,86.326438,352.914307,88.142184 C348.888322,90.495928,344.461858,92.303240,339.634784,93.564174 C334.807710,94.825109,329.847195,95.455566,324.753091,95.455566 C316.577876,95.455566,309.994667,93.992905,305.003267,91.067537 C300.011867,88.142169,297.516204,84.308986,297.516204,79.567873 C297.516204,73.380889,301.624291,67.858079,309.840588,62.999279 C318.056884,58.140478,329.046016,54.836880,342.808313,53.088384 ZM398.616095,68.723892 L399.355558,69.127389 L399.478802,70.136131 L398.862583,70.741377 C389.290597,70.741377,382.060365,71.808952,377.171668,73.944134 C372.282972,76.079316,369.838660,79.214793,369.838660,83.350657 C369.838660,86.107900,371.379193,88.335518,374.460304,90.033576 C377.541415,91.731634,381.628961,92.580650,386.723065,92.580650 C394.775036,92.580650,401.604730,90.790151,407.212352,87.209097 C412.819975,83.628043,415.623744,79.416586,415.623744,74.574598 C415.623744,72.489853,414.976720,70.371515,413.682653,68.219521 C412.388587,66.067526,410.468056,63.949188,407.921004,61.864443 L397.075547,52.987510 C394.076599,50.532891,391.796611,48.078309,390.235514,45.623690 C388.674418,43.169071,387.893882,40.815362,387.893882,38.562493 C387.893882,33.653255,390.985217,29.408173,397.167980,25.827120 C403.350743,22.246066,410.899352,20.455566,419.814034,20.455566 C424.990301,20.455566,429.077847,21.228928,432.076795,22.775674 C435.075744,24.322420,436.575195,26.407134,436.575195,29.029877 C436.575195,31.955245,434.541692,34.409827,430.474626,36.393697 C426.407559,38.377567,421.210829,39.369487,414.884281,39.369487 C414.268059,39.369487,413.610765,39.352675,412.912379,39.319050 C412.213994,39.285425,411.412917,39.234988,410.509125,39.167739 L409.831284,38.764242 L409.831284,37.906811 L410.324259,37.402439 C415.993504,37.402439,420.419967,36.671108,423.603782,35.208425 C426.787597,33.745741,428.379480,31.719870,428.379480,29.130751 C428.379480,27.214131,427.362729,25.701033,425.329196,24.591410 C423.295662,23.481788,420.532974,22.926985,417.041048,22.926985 C411.248559,22.926985,406.288044,24.255150,402.159355,26.911518 C398.030666,29.567886,395.966353,32.678144,395.966353,36.242386 C395.966353,38.226256,396.613376,40.193284,397.907443,42.143529 C399.201510,44.093774,401.409606,46.363422,404.531799,48.952540 L415.746988,58.283408 C418.417284,60.435402,420.440517,62.705050,421.816746,65.092419 C423.192976,67.479788,423.881081,69.883934,423.881081,72.304928 C423.881081,74.658672,423.090274,77.071223,421.508637,79.542655 C419.927000,82.014086,417.759984,84.224891,415.007525,86.175136 C411.104784,88.966004,406.596159,91.092748,401.481514,92.555432 C396.366869,94.018116,390.913384,94.749447,385.120895,94.749447 C377.602984,94.749447,371.615448,93.623029,367.158107,91.370160 C362.700766,89.117290,360.472129,86.141530,360.472129,82.442789 C360.472129,78.004300,363.512113,74.608235,369.592172,72.254490 C375.672232,69.900746,384.422456,68.723892,395.843109,68.723892 Z" style="fill: rgba(179, 179, 179, 1.000000); stroke-width: 0.000000px; stroke: rgba(255, 255, 255, 1.000000); "/>
</g><g style="">  <path d="M404.000000,48.000000 L399.385742,50.734375 C398.523108,49.236972,397.701176,48.260419,396.919922,47.804688 C396.106116,47.283852,395.056322,47.023438,393.770508,47.023438 C392.191724,47.023438,390.881516,47.471024,389.839844,48.366211 C388.798172,49.245122,388.277344,50.351881,388.277344,51.686523 C388.277344,53.525725,389.644518,55.006830,392.378906,56.129883 L396.138672,57.667969 C399.198583,58.904954,401.436516,60.414542,402.852539,62.196777 C404.268562,63.979013,404.976562,66.164050,404.976562,68.751953 C404.976562,72.218767,403.820975,75.083322,401.509766,77.345703 C399.182280,79.624360,396.293312,80.763672,392.842773,80.763672 C389.571273,80.763672,386.869477,79.795257,384.737305,77.858398 C382.637685,75.921540,381.327477,73.195330,380.806641,69.679688 L386.568359,68.410156 C386.828777,70.623709,387.284502,72.153642,387.935547,73.000000 C389.107428,74.627612,390.816395,75.441406,393.062500,75.441406 C394.836597,75.441406,396.309564,74.847337,397.481445,73.659180 C398.653326,72.471023,399.239258,70.965504,399.239258,69.142578 C399.239258,68.410153,399.137534,67.738773,398.934082,67.128418 C398.730630,66.518063,398.413251,65.956546,397.981934,65.443848 C397.550616,64.931150,396.993167,64.451011,396.309570,64.003418 C395.625973,63.555825,394.812179,63.128583,393.868164,62.721680 L390.230469,61.208008 C385.070938,59.027007,382.491211,55.836935,382.491211,51.637695 C382.491211,48.805650,383.573557,46.437510,385.738281,44.533203 C387.903006,42.612621,390.596664,41.652344,393.819336,41.652344 C398.165061,41.652344,401.558582,43.768208,404.000000,48.000000 ZM445.693359,44.411133 L445.693359,51.149414 C442.405583,48.398749,439.003924,47.023438,435.488281,47.023438 C431.614564,47.023438,428.351250,48.415025,425.698242,51.198242 C423.028958,53.965183,421.694336,57.350566,421.694336,61.354492 C421.694336,65.309590,423.028958,68.646145,425.698242,71.364258 C428.367526,74.082370,431.638978,75.441406,435.512695,75.441406 C437.514658,75.441406,439.215488,75.115889,440.615234,74.464844 C441.396488,74.139321,442.206213,73.699873,443.044434,73.146484 C443.882654,72.593096,444.765620,71.925785,445.693359,71.144531 L445.693359,78.004883 C442.438135,79.844085,439.020200,80.763672,435.439453,80.763672 C430.052056,80.763672,425.454121,78.883808,421.645508,75.124023 C417.853171,71.331687,415.957031,66.758165,415.957031,61.403320 C415.957031,56.601864,417.543929,52.321308,420.717773,48.561523 C424.624043,43.955381,429.677703,41.652344,435.878906,41.652344 C439.264340,41.652344,442.535792,42.571931,445.693359,44.411133 ZM465.609375,57.130859 L481.869141,57.130859 L481.869141,42.384766 L487.557617,42.384766 L487.557617,80.080078 L481.869141,80.080078 L481.869141,62.477539 L465.609375,62.477539 L465.609375,80.080078 L459.920898,80.080078 L459.920898,42.384766 L465.609375,42.384766 ZM508.279297,42.384766 L508.279297,80.080078 L502.590820,80.080078 L502.590820,42.384766 ZM523.336914,80.080078 L523.336914,39.821289 L550.827148,68.581055 L550.827148,42.384766 L556.515625,42.384766 L556.515625,82.375000 L529.025391,53.688477 L529.025391,80.080078 ZM571.548828,80.080078 L571.548828,42.384766 L579.458984,42.384766 C583.251321,42.384766,586.246083,42.759111,588.443359,43.507812 C590.803397,44.240238,592.943675,45.485343,594.864258,47.243164 C598.754251,50.791359,600.699219,55.454398,600.699219,61.232422 C600.699219,67.026722,598.672872,71.714175,594.620117,75.294922 C592.585602,77.085295,590.453462,78.330400,588.223633,79.030273 C586.140289,79.730147,583.186217,80.080078,579.361328,80.080078 ZM577.237305,74.733398 L579.800781,74.733398 C582.356133,74.733398,584.480135,74.464846,586.172852,73.927734 C587.865568,73.358070,589.395501,72.454759,590.762695,71.217773 C593.562188,68.662422,594.961914,65.334005,594.961914,61.232422 C594.961914,57.098287,593.578464,53.745456,590.811523,51.173828 C588.321277,48.878895,584.651066,47.731445,579.800781,47.731445 L577.237305,47.731445 ZM619.541016,42.384766 L619.541016,74.733398 L630.625000,74.733398 L630.625000,80.080078 L613.852539,80.080078 L613.852539,42.384766 ZM662.821289,47.731445 L647.708984,47.731445 L647.708984,56.789062 L662.381836,56.789062 L662.381836,62.135742 L647.708984,62.135742 L647.708984,74.733398 L662.821289,74.733398 L662.821289,80.080078 L642.020508,80.080078 L642.020508,42.384766 L662.821289,42.384766 ZM689.060547,64.015625 L700.730469,80.080078 L693.772461,80.080078 L683.005859,64.650391 L681.980469,64.650391 L681.980469,80.080078 L676.291992,80.080078 L676.291992,42.384766 L682.957031,42.384766 C687.937525,42.384766,691.534494,43.320629,693.748047,45.192383 C696.189465,47.275727,697.410156,50.026350,697.410156,53.444336 C697.410156,56.113620,696.645190,58.408519,695.115234,60.329102 C693.585279,62.249684,691.567070,63.478513,689.060547,64.015625 ZM681.980469,59.694336 L683.787109,59.694336 C689.174506,59.694336,691.868164,57.635437,691.868164,53.517578 C691.868164,49.660137,689.247748,47.731445,684.006836,47.731445 L681.980469,47.731445 Z" style="fill: rgba(64, 64, 64, 1.000000); stroke-width: 0.000000px; stroke: rgba(255, 255, 255, 1.000000); "/>
  <path d="M43.000000,49.000000 L27.887695,49.000000 L27.887695,58.057617 L42.560547,58.057617 L42.560547,63.404297 L27.887695,63.404297 L27.887695,76.001953 L43.000000,76.001953 L43.000000,81.348633 L22.199219,81.348633 L22.199219,43.653320 L43.000000,43.653320 ZM65.159180,43.653320 L65.159180,76.001953 L76.243164,76.001953 L76.243164,81.348633 L59.470703,81.348633 L59.470703,43.653320 ZM96.327148,43.653320 L96.327148,81.348633 L90.638672,81.348633 L90.638672,43.653320 ZM120.903320,76.001953 L138.994141,76.001953 L138.994141,81.348633 L111.552734,81.348633 L130.058594,49.000000 L114.580078,49.000000 L114.580078,43.653320 L139.409180,43.653320 ZM176.778320,72.193359 L160.640625,72.193359 L156.441406,81.348633 L150.313477,81.348633 L168.965820,41.285156 L186.958984,81.348633 L180.733398,81.348633 ZM174.458984,66.846680 L168.868164,54.029297 L163.008789,66.846680 ZM200.670898,81.348633 L200.670898,43.653320 L206.334961,43.653320 C208.857760,43.653320,210.867831,43.848631,212.365234,44.239258 C213.878914,44.629885,215.156570,45.289058,216.198242,46.216797 C217.256190,47.177088,218.094398,48.373365,218.712891,49.805664 C219.347659,51.254239,219.665039,52.719068,219.665039,54.200195 C219.665039,56.902032,218.631521,59.188793,216.564453,61.060547 C218.566416,61.744144,220.145177,62.940421,221.300781,64.649414 C222.472662,66.342131,223.058594,68.311512,223.058594,70.557617 C223.058594,73.503595,222.016937,75.993805,219.933594,78.028320 C218.680332,79.281582,217.272469,80.152341,215.709961,80.640625 C214.000968,81.112633,211.860690,81.348633,209.289062,81.348633 ZM206.359375,59.839844 L208.141602,59.839844 C210.257498,59.839844,211.807775,59.371912,212.792480,58.436035 C213.777186,57.500158,214.269531,56.120777,214.269531,54.297852 C214.269531,52.523754,213.764979,51.176925,212.755859,50.257324 C211.746740,49.337723,210.281911,48.877930,208.361328,48.877930 L206.359375,48.877930 ZM206.359375,76.001953 L209.875000,76.001953 C212.446627,76.001953,214.334629,75.497401,215.539062,74.488281 C216.808600,73.397781,217.443359,72.014331,217.443359,70.337891 C217.443359,68.710278,216.833014,67.343104,215.612305,66.236328 C214.424148,65.145828,212.300146,64.600586,209.240234,64.600586 L206.359375,64.600586 ZM260.037109,49.000000 L244.924805,49.000000 L244.924805,58.057617 L259.597656,58.057617 L259.597656,63.404297 L244.924805,63.404297 L244.924805,76.001953 L260.037109,76.001953 L260.037109,81.348633 L239.236328,81.348633 L239.236328,43.653320 L260.037109,43.653320 ZM286.908203,49.000000 L286.908203,81.348633 L281.219727,81.348633 L281.219727,49.000000 L272.552734,49.000000 L272.552734,43.653320 L295.550781,43.653320 L295.550781,49.000000 ZM315.317383,58.399414 L331.577148,58.399414 L331.577148,43.653320 L337.265625,43.653320 L337.265625,81.348633 L331.577148,81.348633 L331.577148,63.746094 L315.317383,63.746094 L315.317383,81.348633 L309.628906,81.348633 L309.628906,43.653320 L315.317383,43.653320 Z" style="fill: rgba(64, 64, 64, 1.000000); stroke-width: 0.000000px; stroke: rgba(255, 255, 255, 1.000000); "/>
</g></svg>