<svg xmlns="http://www.w3.org/2000/svg" width="540" height="72" viewBox="0 0 540 72">
  <defs>
    <style>
      .cls-1 {
        fill: #b7b7b7;
      }

      .cls-1, .cls-2 {
        fill-rule: evenodd;
      }

      .cls-2 {
        fill: #3f3f3f;
      }
    </style>
  </defs>
  <path id="ES_copy" data-name="ES copy" class="cls-1" d="M246.441,23.925a4.539,4.539,0,0,1-.425-2.025q0-3.483,3.773-6.145a14.929,14.929,0,0,1,8.836-2.662,5.784,5.784,0,0,1,3.449.92,2.928,2.928,0,0,1,1.274,2.506q0,2.577-3.84,4.786A48.313,48.313,0,0,1,247.75,25.5,4.655,4.655,0,0,1,246.441,23.925Zm-12.149,11.13q-6.8,4.093-6.8,9.3,0,3.993,4.129,6.457t10.892,2.464a31.8,31.8,0,0,0,8.207-1.062,28.624,28.624,0,0,0,7.324-3.044,13.884,13.884,0,0,0,3.84-3.115,5.234,5.234,0,0,0,1.257-3.285,4.178,4.178,0,0,0-2.175-3.554,9.829,9.829,0,0,0-5.5-1.43,21.074,21.074,0,0,0-7.341,1.473,44.762,44.762,0,0,0-8.53,4.446l-0.068.34,0.374,0.425,0.34,0.057a42.013,42.013,0,0,1,7.018-3.554,16.017,16.017,0,0,1,5.522-1.147,7.582,7.582,0,0,1,4.333,1.119,3.448,3.448,0,0,1,1.648,2.988q0,3.172-4.231,5.537a20.555,20.555,0,0,1-10.178,2.365q-5.268,0-8.275-1.94a6.019,6.019,0,0,1-3.008-5.31q0-5.154,6.457-9.247t16.925-5.31l0.339-.17V29.263l-0.272-.283A28.083,28.083,0,0,1,251.9,27.9a13.759,13.759,0,0,1-3.161-1.529q9.141-2.407,13.747-5t4.6-5.4a3.294,3.294,0,0,0-1.937-2.974,11.323,11.323,0,0,0-5.438-1.076,31.673,31.673,0,0,0-6.44.666,22.466,22.466,0,0,0-5.522,1.827,17.476,17.476,0,0,0-5.2,3.512,5.739,5.739,0,0,0-1.563,3.965,5.358,5.358,0,0,0,.577,2.521,5.733,5.733,0,0,0,1.734,1.954q-3.5.765-6.78,1.161a52.516,52.516,0,0,1-6.3.4q-6.627,0-10.247-1.827t-3.619-5.2a6.129,6.129,0,0,1,3.33-5.48q3.332-2,9.21-2a47.355,47.355,0,0,1,5.829.382q3.075,0.382,6.44,1.119l0.407-.113,0.136-.51L241.5,14q-3.7-.85-7.153-1.289a52.2,52.2,0,0,0-6.576-.439q-7.206,0-11.674,2.336t-4.469,6.018q0,3.908,4.741,6.188t12.931,2.28a60.053,60.053,0,0,0,7.188-.453q3.754-.453,7.867-1.359a17.028,17.028,0,0,0,3.789,1.5,23.537,23.537,0,0,0,4.333.708Q241.088,30.962,234.292,35.055Zm47.862,3.214q-9.448,0-14.477,1.982t-5.03,5.721q0,3.116,3.687,5.013t9.907,1.9a32.135,32.135,0,0,0,9.023-1.232,23.909,23.909,0,0,0,7.459-3.582,13.433,13.433,0,0,0,3.585-3.724,7.631,7.631,0,0,0,1.309-4.064,8.148,8.148,0,0,0-1.139-4.05,13.883,13.883,0,0,0-3.347-3.823l-6.185-5.239a19.117,19.117,0,0,1-3.654-3.823,6.022,6.022,0,0,1-1.07-3.314q0-3,3.415-5.239a14.648,14.648,0,0,1,8.208-2.237,9.441,9.441,0,0,1,4.57.935,2.837,2.837,0,0,1,1.683,2.549q0,2.181-2.634,3.413a17.658,17.658,0,0,1-7.324,1.232l-0.272.283v0.482l0.374,0.227q0.747,0.057,1.326.085t1.087,0.028a19.315,19.315,0,0,0,8.6-1.671q3.364-1.671,3.365-4.135a3.927,3.927,0,0,0-2.481-3.512,14.673,14.673,0,0,0-6.763-1.3,24.191,24.191,0,0,0-12.489,3.016q-5.116,3.016-5.115,7.151a7.51,7.51,0,0,0,1.291,3.965,17.839,17.839,0,0,0,3.773,4.135l5.981,4.984a14.107,14.107,0,0,1,3.177,3.568,6.986,6.986,0,0,1,1.071,3.568q0,4.078-4.639,7.094a20.289,20.289,0,0,1-11.3,3.016,13.8,13.8,0,0,1-6.763-1.43,4.248,4.248,0,0,1-2.548-3.752q0-3.483,4.044-5.282t11.962-1.8l0.34-.34-0.068-.566-0.408-.226h-1.529Z"/>
  <path id="ELIZABETH_copy" data-name="ELIZABETH copy" class="cls-2" d="M97.611,25.7H86.428V43.793H97.611V41.226H89.486V35.179h7.888V32.613H89.486V28.265h8.124V25.7Zm7.779,0V43.793h9.017V41.226h-5.959V25.7H105.39Zm15.681,0V43.793h3.058V25.7h-3.058Zm25.144,0H132.866v2.566h8.322l-9.949,15.527h14.752V41.226h-9.725Zm21.14,18.094H170.7l-9.673-19.23L151,43.793H154.3l2.257-4.395h8.676Zm-9.528-6.961,3.15-6.152,3,6.152h-6.155Zm23.805,6.961a14.71,14.71,0,0,0,3.451-.34,5.653,5.653,0,0,0,2.271-1.254,4.581,4.581,0,0,0,1.68-3.586,4.5,4.5,0,0,0-.945-2.836,4.875,4.875,0,0,0-2.546-1.723,4.093,4.093,0,0,0,1.667-3.293,4.748,4.748,0,0,0-.512-2.109,4.973,4.973,0,0,0-1.352-1.723,5.1,5.1,0,0,0-2.061-.949,14.87,14.87,0,0,0-3.242-.281H177V43.793h4.634Zm-1.575-15.586h1.076a3.665,3.665,0,0,1,2.362.662,2.353,2.353,0,0,1,.814,1.939,2.461,2.461,0,0,1-.794,1.986,3.82,3.82,0,0,1-2.5.674h-0.958V28.207Zm0,7.547h1.548a5.561,5.561,0,0,1,3.426.785,2.442,2.442,0,0,1,.984,1.969,2.411,2.411,0,0,1-1.023,1.992,5.111,5.111,0,0,1-3.045.727h-1.89V35.754ZM207.839,25.7H196.656V43.793h11.183V41.226h-8.125V35.179H207.6V32.613h-7.888V28.265h8.125V25.7Zm18.016,2.566V25.7H213.492v2.566h4.659V43.793h3.058V28.265h4.646Zm9.552-2.566h-3.058V43.793h3.058V35.343h8.741v8.449h3.058V25.7h-3.058v7.078h-8.741V25.7Z"/>
  <path id="SCHINDLER_copy" data-name="SCHINDLER copy" class="cls-2" d="M282.689,25.347a6.777,6.777,0,0,0-4.344,1.383,4.179,4.179,0,0,0-1.746,3.41q0,3.023,4.161,4.594l1.955,0.727a9.075,9.075,0,0,1,1.313.615,4.015,4.015,0,0,1,.9.691,2.4,2.4,0,0,1,.512.809,2.753,2.753,0,0,1,.164.967,2.8,2.8,0,0,1-.945,2.168,3.407,3.407,0,0,1-2.376.855,3.332,3.332,0,0,1-2.756-1.172,4.357,4.357,0,0,1-.735-2.2l-3.1.609a6.184,6.184,0,0,0,2.114,3.926,6.691,6.691,0,0,0,4.357,1.395,6.824,6.824,0,0,0,4.659-1.641,5.239,5.239,0,0,0,1.864-4.125,4.56,4.56,0,0,0-1.142-3.147,8.721,8.721,0,0,0-3.609-2.174l-2.021-.738q-2.205-.809-2.205-2.133a1.922,1.922,0,0,1,.84-1.594,3.88,3.88,0,0,1,3.806-.27,3.973,3.973,0,0,1,1.326,1.406l2.48-1.312a6.18,6.18,0,0,0-5.473-3.047h0Zm22.074,0a10.737,10.737,0,0,0-8.151,3.316,8.729,8.729,0,0,0-2.559,6.164,8.52,8.52,0,0,0,3.058,6.586,10.826,10.826,0,0,0,7.415,2.707,12.083,12.083,0,0,0,5.513-1.324V39.5a15.509,15.509,0,0,1-1.424.961,8.26,8.26,0,0,1-1.306.633,7.152,7.152,0,0,1-2.743.469,7.553,7.553,0,0,1-5.276-1.957,6.24,6.24,0,0,1-2.153-4.8,6.385,6.385,0,0,1,2.153-4.875,7.408,7.408,0,0,1,5.263-2,9.062,9.062,0,0,1,5.486,1.98V26.672a11.3,11.3,0,0,0-5.276-1.324h0ZM320.208,25.7H317.15V43.793h3.058V35.343h8.741v8.449h3.058V25.7h-3.058v7.078h-8.741V25.7Zm19.344,0V43.793h3.058V25.7h-3.058Zm13.673,18.094V31.125L368,44.894V25.7h-3.058V38.273l-14.779-13.8V43.793h3.058Zm26.523,0a17.429,17.429,0,0,0,4.765-.5,9.859,9.859,0,0,0,3.438-1.793,8.188,8.188,0,0,0,3.269-6.75,8.24,8.24,0,0,0-3.137-6.715,9.355,9.355,0,0,0-3.452-1.793,17.226,17.226,0,0,0-4.83-.539h-4.253V43.793h4.2Zm-1.142-15.527h1.379a9.134,9.134,0,0,1,5.919,1.652,5.977,5.977,0,0,1,2.231,4.828,5.89,5.89,0,0,1-2.257,4.793,7.176,7.176,0,0,1-2.468,1.3,12.8,12.8,0,0,1-3.425.387h-1.379V28.265ZM397.753,25.7V43.793h9.017V41.226h-5.959V25.7h-3.058Zm25.788,0H412.359V43.793h11.182V41.226h-8.124V35.179h7.888V32.613h-7.888V28.265h8.124V25.7Zm16.824,8.613a4.8,4.8,0,0,0,1.234-3.3,4.741,4.741,0,0,0-1.969-3.961q-1.785-1.347-5.8-1.348h-3.584V43.793H433.3V36.386h0.551l5.788,7.406h3.741l-6.274-7.711A5.639,5.639,0,0,0,440.365,34.312ZM433.3,28.265h1.089q4.226,0,4.226,2.777,0,2.965-4.344,2.965H433.3V28.265Z"/>
</svg>
