<svg xmlns="http://www.w3.org/2000/svg" xmlns:xlink="http://www.w3.org/1999/xlink" viewBox="0 0 1440 720">
  <defs>
    <style>
      .cls-1 {
        clip-path: url(#clip-Vanilla);
      }

      .cls-2 {
        fill: #8e7060;
      }

      .cls-3, .cls-4 {
        fill: #856c8d;
      }

      .cls-4 {
        fill-rule: evenodd;
      }
    </style>
    <clipPath id="clip-Vanilla">
      <rect width="1440" height="720"/>
    </clipPath>
  </defs>
  <g id="Vanilla" class="cls-1">
    <g id="vanilla-logo" transform="translate(274.007 167.255)">
      <g id="layer1" transform="translate(0.993 0.745)">
        <path id="path38" class="cls-2" d="M342.776,493.927l2.124,13.022h11.552l-.089-.6v-.013l-.195-1.411v-.009L356,503.54l0-.009c-.059-.492-.125-1.063-.2-1.737-.055-.515-.117-1.1-.182-1.794-.082-.844-.138-1.449-.175-1.866-.048-.558-.1-1.155-.146-1.8-.042-.562-.086-1.2-.127-1.905-.039-.615-.076-1.3-.111-2.032-.031-.659-.064-1.376-.094-2.156q-.042-1.06-.073-2.244v0c-.019-.775-.041-1.577-.057-2.4v0l-.041-2.434v-.006l-.028-2.674v0L354.751,478V396.459q0-3.443-.14-6.543-.142-3.166-.426-6.1t-.712-5.667q-.422-2.706-1-5.259-.564-2.507-1.259-4.785t-1.535-4.372q-.826-2.061-1.793-3.93a37.735,37.735,0,0,0-2.059-3.519l-.155-.236-.157-.235v-.006a32.179,32.179,0,0,0-2.042-2.693,28.818,28.818,0,0,0-2.425-2.549,26.479,26.479,0,0,0-2.724-2.213,25.863,25.863,0,0,0-2.971-1.811l-.5-.26-.119-.061a26.493,26.493,0,0,0-2.862-1.194,28.765,28.765,0,0,0-3.222-.92h0a32.878,32.878,0,0,0-3.763-.612,39.3,39.3,0,0,0-4.044-.2q-2.189,0-4.2.191a38.841,38.841,0,0,0-3.973.582,35.16,35.16,0,0,0-3.743.962,32.984,32.984,0,0,0-3.53,1.341,32.282,32.282,0,0,0-3.315,1.724,33.29,33.29,0,0,0-3.13,2.121,35.1,35.1,0,0,0-2.948,2.517,39.39,39.39,0,0,0-2.761,2.914,41.208,41.208,0,0,0-2.543,3.3q-1.2,1.728-2.268,3.619t-2,3.963q-.931,2.063-1.717,4.282-.773,2.179-1.4,4.466t-1.13,4.759q-.45,2.214-.8,4.613-.279,1.908-.485,3.854h10.886q.147-1.213.335-2.43.254-1.638.566-3.155c.241-1.175.509-2.311.8-3.395s.615-2.161.975-3.234c.38-1.13.788-2.217,1.22-3.252s.911-2.063,1.424-3.069,1.05-1.955,1.62-2.879,1.182-1.828,1.814-2.681c.651-.878,1.318-1.7,1.991-2.456a30.088,30.088,0,0,1,2.112-2.147,26.384,26.384,0,0,1,2.247-1.844h0a23.043,23.043,0,0,1,2.359-1.521,21.6,21.6,0,0,1,2.51-1.2,21.207,21.207,0,0,1,2.611-.86,21.562,21.562,0,0,1,2.721-.521,22.583,22.583,0,0,1,2.793-.173,24.549,24.549,0,0,1,2.575.135c.537.056,1.069.131,1.594.224l0-.022.88.193a20.121,20.121,0,0,1,2.354.672,19.348,19.348,0,0,1,2.225.935,18.6,18.6,0,0,1,2.076,1.208,19.533,19.533,0,0,1,1.934,1.474,20.176,20.176,0,0,1,1.493,1.429q.466.49.92,1.037l.042-.019.446.6.462.627,0,0a24.831,24.831,0,0,1,1.407,2.139c.282.476.549.965.8,1.462l.016-.006.4.861c.362.78.7,1.615,1.021,2.5s.593,1.762.833,2.661.45,1.822.634,2.8.333,1.952.451,2.955.209,2.038.27,3.117.091,2.178.091,3.263v16.211l-.558.244-.558.243-.558.244q-4.276,1.87-8.4,3.836-4.054,1.931-7.853,3.91-3.772,1.965-7.215,3.94t-6.621,3.995q-3.168,2.011-5.978,4.01-2.842,2.02-5.367,4.05t-4.751,4.082q-2.221,2.047-4.142,4.112-1.9,2.045-3.577,4.179t-3.088,4.312q-1.424,2.194-2.609,4.458-1.169,2.239-2.132,4.614h0q-.949,2.345-1.659,4.763t-1.182,4.9q-.475,2.507-.712,5.087-.231,2.543-.233,5.256c0,1.567.044,3.07.131,4.5q.132,2.205.394,4.228c.174,1.349.4,2.673.661,3.962s.572,2.526.922,3.721q.51,1.745,1.169,3.426.649,1.657,1.425,3.192T282,496.348a32.286,32.286,0,0,0,1.925,2.7,29.17,29.17,0,0,0,2.108,2.371,26.171,26.171,0,0,0,2.279,2.047,24.512,24.512,0,0,0,5.07,3.142,25.447,25.447,0,0,0,2.818,1.106,27.185,27.185,0,0,0,2.994.791,30.95,30.95,0,0,0,3.2.478q1.62.155,3.406.156c.782,0,1.535-.019,2.254-.063s1.472-.109,2.222-.2c.77-.09,1.5-.2,2.2-.323.713-.129,1.434-.282,2.157-.458s1.435-.372,2.149-.593,1.426-.463,2.13-.726c.638-.241,1.283-.5,1.922-.783s1.271-.574,1.887-.882h0l.372-.194q1.027-.532,2.039-1.128h0c.648-.382,1.311-.8,1.979-1.243.65-.43,1.291-.881,1.914-1.345s1.242-.953,1.883-1.484,1.252-1.064,1.841-1.605c.608-.557,1.2-1.128,1.765-1.706.594-.6,1.169-1.217,1.72-1.834v0c.58-.65,1.135-1.3,1.656-1.944l1.3-1.6,1.3-1.6,1.3-1.6.331,2.033.332,2.031.332,2.032Zm.044-77.95v60.451l-.2.253-.195.253-.2.253q-1,1.3-2,2.525t-1.973,2.348q-.956,1.1-1.97,2.2t-1.937,2.02q-1,1-1.96,1.89-.986.91-1.931,1.7c-.643.54-1.29,1.055-1.934,1.54s-1.3.952-1.929,1.371l0,0-.633.423-.635.423-.016-.016q-.52.32-1.014.605c-.553.317-1.1.612-1.644.881q-.971.482-2.019.915-1.025.421-2.041.75c-.675.219-1.369.415-2.073.585h0c-.694.167-1.4.308-2.094.419-.73.115-1.441.2-2.126.256-.714.057-1.423.087-2.122.087a23.653,23.653,0,0,1-2.414-.124,21.263,21.263,0,0,1-2.314-.362,19.635,19.635,0,0,1-2.21-.613,19.384,19.384,0,0,1-2.108-.864h0a18.986,18.986,0,0,1-1.978-1.1v0A18.847,18.847,0,0,1,297.3,493.7a20.932,20.932,0,0,1-1.71-1.575,22.826,22.826,0,0,1-1.572-1.8l-.047-.06-.055-.068-.016-.035c-.454-.6-.889-1.227-1.3-1.885h0q-.625-1.007-1.168-2.1c-.358-.723-.692-1.491-1-2.3h0q-.451-1.174-.812-2.436c-.229-.8-.437-1.66-.619-2.567-.176-.871-.324-1.78-.443-2.718s-.21-1.91-.269-2.871c-.059-.991-.091-1.983-.091-2.97q0-2.118.2-4.266.2-2.128.6-4.185c.238-1.224.526-2.429.863-3.606q.38-1.329.845-2.633l-.046-.016.372-.912.372-.911q.789-1.932,1.8-3.867t2.2-3.767Q296.6,444.316,298,442.5t2.98-3.545l.652-.719.653-.719.019.022q1.157-1.206,2.406-2.388h0q1.639-1.553,3.367-3.01,1.941-1.639,4.146-3.291,2.181-1.634,4.565-3.235,2.357-1.581,4.943-3.15t5.324-3.076q2.707-1.491,5.717-3,2.993-1.5,6.1-2.934l.189-.088h.006l1.126-.517,1.311-.6,1.311-.6v4.329Z" transform="translate(243.102 -262.65)"/>
        <path id="path40" class="cls-2" d="M252.736,493.922l2.125,13.022h11.551l-.088-.592v0c-.056-.4-.121-.861-.194-1.42q-.115-.865-.178-1.4c-.057-.48-.123-1.053-.2-1.738-.054-.508-.115-1.108-.18-1.792l-.175-1.864c-.048-.558-.1-1.17-.146-1.8-.042-.553-.084-1.192-.129-1.9-.039-.62-.076-1.3-.111-2.042-.031-.656-.062-1.369-.091-2.134-.028-.713-.053-1.47-.075-2.265-.019-.769-.042-1.573-.058-2.4-.016-.788-.031-1.6-.039-2.443v0l-.028-2.674v0L264.708,478V396.458q0-3.443-.141-6.543-.14-3.166-.426-6.1t-.712-5.667q-.421-2.707-1-5.258-.565-2.508-1.259-4.785t-1.535-4.371q-.829-2.063-1.8-3.935a38.26,38.26,0,0,0-2.056-3.515l-.156-.236-.155-.235v0a33,33,0,0,0-2.046-2.7,28.813,28.813,0,0,0-2.424-2.549,26.735,26.735,0,0,0-2.729-2.223h0a25.538,25.538,0,0,0-2.96-1.806v0a26.242,26.242,0,0,0-3.217-1.41h0a28.7,28.7,0,0,0-3.484-1.014,32.848,32.848,0,0,0-3.765-.612,39.244,39.244,0,0,0-4.044-.2q-2.187,0-4.2.191a38.809,38.809,0,0,0-3.971.582,35.611,35.611,0,0,0-3.747.962,32.844,32.844,0,0,0-3.526,1.341,31.868,31.868,0,0,0-3.313,1.724,33.064,33.064,0,0,0-3.131,2.121,35.218,35.218,0,0,0-2.949,2.519,39.089,39.089,0,0,0-2.76,2.913,41.546,41.546,0,0,0-2.544,3.3q-1.2,1.73-2.267,3.618t-2,3.962q-.931,2.063-1.717,4.282-.772,2.18-1.4,4.469t-1.131,4.755q-.451,2.215-.8,4.62-.28,1.907-.485,3.849h10.886q.147-1.211.337-2.426.253-1.637.566-3.157c.241-1.176.507-2.31.8-3.393s.616-2.163.977-3.239q.569-1.7,1.221-3.25c.445-1.065.92-2.092,1.421-3.073h0q.763-1.492,1.619-2.88t1.812-2.677c.655-.88,1.323-1.7,2-2.462a29.358,29.358,0,0,1,2.11-2.14l0,0a25.848,25.848,0,0,1,2.249-1.845,23.262,23.262,0,0,1,2.357-1.521,21.836,21.836,0,0,1,2.509-1.2,20.989,20.989,0,0,1,2.612-.858,21.475,21.475,0,0,1,2.719-.523,22.612,22.612,0,0,1,2.8-.173,24.553,24.553,0,0,1,2.575.135c.537.056,1.07.131,1.595.224l.006-.022.879.193a20.169,20.169,0,0,1,2.354.672,18.651,18.651,0,0,1,4.3,2.143,19.691,19.691,0,0,1,1.933,1.476c.521.449,1.018.926,1.491,1.424l0,0q.449.473.889,1l.045-.022.478.648.462.626a25.249,25.249,0,0,1,1.406,2.14h0q.657,1.114,1.221,2.326.552,1.185,1.022,2.494c.314.872.593,1.759.831,2.653s.45,1.821.633,2.8.335,1.961.453,2.959.208,2.038.269,3.119.091,2.173.091,3.259v16.211l-.558.244-.558.243-.558.244q-4.275,1.87-8.4,3.835-4.054,1.932-7.853,3.911-3.775,1.967-7.222,3.944t-6.616,3.991q-3.165,2.012-5.977,4.009-2.841,2.02-5.368,4.05-2.512,2.019-4.745,4.077t-4.148,4.117q-1.9,2.045-3.577,4.179t-3.088,4.312q-1.428,2.2-2.61,4.46-1.136,2.17-2.061,4.436v.009l-.068.17q-.953,2.354-1.66,4.757-.711,2.418-1.183,4.907-.474,2.5-.711,5.082-.233,2.547-.233,5.261,0,2.351.13,4.5c.088,1.473.222,2.883.394,4.228s.4,2.673.662,3.963.573,2.525.922,3.719q.51,1.745,1.17,3.426c.432,1.1.909,2.171,1.424,3.192s1.077,2.007,1.667,2.936a32.41,32.41,0,0,0,1.927,2.709v0a29.511,29.511,0,0,0,2.108,2.372,26.381,26.381,0,0,0,2.279,2.047,24.89,24.89,0,0,0,2.447,1.73,25.163,25.163,0,0,0,2.621,1.412,25.554,25.554,0,0,0,2.818,1.106,27.254,27.254,0,0,0,3,.791,30.988,30.988,0,0,0,3.2.478q1.619.155,3.406.156c.781,0,1.535-.019,2.254-.063s1.474-.109,2.222-.2c.77-.09,1.5-.2,2.2-.323.713-.129,1.434-.282,2.157-.458s1.436-.372,2.15-.593,1.422-.462,2.124-.726h0c.658-.248,1.3-.511,1.931-.784.644-.281,1.279-.579,1.9-.889v0l.353-.184h0c.7-.364,1.384-.741,2.036-1.123s1.314-.8,1.985-1.245c.653-.432,1.3-.886,1.924-1.354q.918-.683,1.875-1.478t1.841-1.605c.607-.557,1.2-1.128,1.765-1.706.594-.6,1.169-1.217,1.721-1.834l0,0c.58-.65,1.135-1.3,1.656-1.945l1.3-1.6,1.3-1.6,1.3-1.6.33,2.033.332,2.031.331,2.032Zm.044-77.95v60.451l-.194.253-.2.253-.2.253c-.667.865-1.336,1.707-2,2.52s-1.327,1.6-1.976,2.354q-.956,1.1-1.97,2.2t-1.937,2.02q-1,1-1.964,1.893c-.656.605-1.3,1.173-1.927,1.7q-.965.81-1.933,1.539c-.653.493-1.3.953-1.929,1.372v0l-.633.423-.634.423-.016-.016c-.345.214-.681.416-1.011.6-.555.318-1.107.615-1.649.883-.647.322-1.321.627-2.018.914s-1.367.532-2.042.751h0c-.684.221-1.377.418-2.071.585h0q-1.042.251-2.093.419c-.73.115-1.44.2-2.126.256-.714.057-1.423.087-2.121.087a23.649,23.649,0,0,1-2.416-.124,21.269,21.269,0,0,1-2.314-.362,19.273,19.273,0,0,1-4.317-1.477,18.589,18.589,0,0,1-1.98-1.1v0a19.048,19.048,0,0,1-1.847-1.342,20.485,20.485,0,0,1-1.707-1.572,23.033,23.033,0,0,1-1.576-1.8v0l-.049-.064-.057-.073-.016-.031c-.471-.619-.9-1.245-1.294-1.873-.417-.671-.807-1.375-1.169-2.1-.368-.746-.705-1.512-1-2.3s-.572-1.6-.812-2.436c-.229-.8-.438-1.66-.62-2.566-.175-.872-.324-1.78-.444-2.718s-.21-1.911-.268-2.871c-.059-.99-.09-1.983-.09-2.97q0-2.117.2-4.266.2-2.128.6-4.185.357-1.839.865-3.61.38-1.335.849-2.645l-.042-.016.364-.9.371-.911c.525-1.288,1.128-2.582,1.8-3.869s1.405-2.54,2.2-3.765,1.655-2.445,2.589-3.652,1.929-2.391,2.979-3.546l.655-.718.655-.718.019.019q1.135-1.184,2.4-2.38,1.646-1.557,3.378-3.019,1.945-1.641,4.153-3.295,2.177-1.633,4.557-3.23,2.357-1.581,4.943-3.15t5.324-3.076q2.709-1.491,5.718-3,2.993-1.5,6.1-2.934l.188-.088h.006l1.126-.517,1.311-.6,1.311-.6v4.329Z" transform="translate(-71.41 -262.646)"/>
        <path id="path42" class="cls-2" d="M264.705,329.457V555.289h12.407V329.457Z" transform="translate(204.961 -310.991)"/>
        <path id="path44" class="cls-2" d="M251.66,329.457V555.289h12.408V329.457Z" transform="translate(159.396 -310.991)"/>
        <path id="path46" class="cls-2" d="M238.615,344V504.5h12.408V344H238.615Z" transform="translate(113.832 -260.203)"/>
        <path id="path48" class="cls-2" d="M238.259,330.549v15.824h15.557V330.549Z" transform="translate(112.586 -307.177)"/>
        <path id="path50" class="cls-2" d="M212.994,345.7V506.2h12.087V378.612l.157-.233.155-.233.16-.24.452-.677,0,0q.67-.987,1.391-2.006.987-1.4,1.841-2.522c.582-.772,1.2-1.555,1.837-2.342.615-.759,1.239-1.5,1.865-2.215s1.262-1.414,1.866-2.051,1.242-1.276,1.871-1.88,1.25-1.173,1.884-1.721,1.264-1.067,1.9-1.558c.654-.505,1.3-.976,1.925-1.406s1.268-.84,1.9-1.213q.977-.58,1.922-1.05h0c.637-.316,1.278-.606,1.918-.864s1.3-.489,1.958-.691,1.314-.368,1.957-.5a19.946,19.946,0,0,1,1.972-.3,19.1,19.1,0,0,1,1.951-.1,17.9,17.9,0,0,1,2.155.127,15.537,15.537,0,0,1,2.037.383h0a13.738,13.738,0,0,1,1.909.644,12.8,12.8,0,0,1,3.358,2.077l0,0a13.337,13.337,0,0,1,1.415,1.419,14.825,14.825,0,0,1,1.215,1.635,17.312,17.312,0,0,1,1.029,1.857v0l.09.191.091.191v.022c.242.544.472,1.133.69,1.765h0c.23.669.452,1.412.662,2.229h0q.32,1.237.585,2.634.261,1.38.471,2.93c.135,1,.255,2.069.359,3.2s.191,2.3.257,3.487.118,2.462.153,3.8q.053,2.086.055,4.045V506.2h12.088V389.313q0-6.269-.4-11.642a99.091,99.091,0,0,0-1.2-9.872c-.264-1.5-.559-2.9-.877-4.217s-.677-2.573-1.066-3.764c-.38-1.161-.793-2.262-1.239-3.3a29.107,29.107,0,0,0-1.409-2.852,24.1,24.1,0,0,0-1.565-2.42h0a20.278,20.278,0,0,0-1.753-2.071,18.4,18.4,0,0,0-1.934-1.731,17.427,17.427,0,0,0-2.135-1.408,17.846,17.846,0,0,0-2.345-1.1v0a19.938,19.938,0,0,0-2.578-.788,23.783,23.783,0,0,0-2.838-.482,28.623,28.623,0,0,0-3.08-.16c-.649,0-1.284.022-1.9.066-.635.045-1.265.112-1.883.2s-1.242.2-1.877.338c-.653.141-1.278.3-1.865.468-.6.175-1.224.38-1.854.609s-1.24.478-1.871.755-1.25.572-1.858.888-1.233.662-1.844,1.025h0c-.623.372-1.247.771-1.86,1.186v0c-.627.425-1.259.876-1.887,1.35l-.25.188h0c-.564.429-1.111.864-1.636,1.3-.609.506-1.243,1.059-1.894,1.65l-.269.242h0q-.816.75-1.619,1.541-.939.927-1.933,1.978-.94,1-1.925,2.117c-.642.73-1.294,1.495-1.949,2.288l-1.641,1.985-1.642,1.987-1.641,1.985V345.7H212.988Z" transform="translate(24.317 -261.906)"/>
        <path id="path52" class="cls-2" d="M172.849,555.289h6.257L224.7,329.457H210.545L182.123,480.17h0l-.044.253h0l-.519,3h0l-.471,2.785h0l-.481,2.915c-.172,1.05-.315,1.939-.432,2.685l-.427,2.79-.431,2.893-.035.247-.374,2.617h0c-.138.988-.261,1.884-.365,2.662v.031l-.012.08-.012.079h0l-.4,2.906h0l-.373,2.822h0l-.351,2.761h0l-.381,3.1-.357,3.013h0l-.33,2.915-.326,3-.3,2.9-.964,9.677-.964,9.68-.928,9.318Z" transform="translate(-115.895 -310.991)"/>
        <path id="path54" class="cls-2" d="M160.172,329.457l44.969,225.832h7.423l-.843-9.324-.875-9.689-.875-9.687-.006-.081v0l-.2-2.135-.243-2.4c-.07-.674-.158-1.464-.254-2.325l-.292-2.526c-.1-.809-.2-1.65-.306-2.507-.127-1.025-.229-1.825-.3-2.337-.089-.677-.2-1.469-.323-2.371l-.359-2.528h0l-.012-.076-.012-.076v-.039q-.142-1.029-.36-2.5c-.125-.862-.274-1.836-.434-2.885h0l-.444-2.84h0l-.454-2.806h0l-.107-.635v0c-.152-.915-.342-2.041-.572-3.386l-.639-3.682h0L204,484.73h0l-.623-3.463h0l-.093-.49L174.964,329.457H160.171Z" transform="translate(-160.171 -310.991)"/>
        <path id="path56" class="cls-2" d="M475.555,407.126h-7.033l27.805,72.022.265.688-.28.682L487.4,502.268h6.242l38.8-95.141h-7.116l-23.7,59.443-1.76,4.413-1.688-4.434Zm-110.3-6.673v22.09l-3.325-4.332a32.87,32.87,0,0,0-5.278-5.474,30.921,30.921,0,0,0-6.3-3.984,32.587,32.587,0,0,0-7.225-2.439,38.579,38.579,0,0,0-8.046-.81,37.4,37.4,0,0,0-14.34,2.666,34.516,34.516,0,0,0-11.677,8.007,35.833,35.833,0,0,0-7.807,11.921,41.573,41.573,0,0,0,.04,29.056,36.49,36.49,0,0,0,7.908,12.078,34.617,34.617,0,0,0,25.877,10.836,35.778,35.778,0,0,0,7.741-.821,34.741,34.741,0,0,0,7.3-2.5,34.126,34.126,0,0,0,6.5-3.97,32.892,32.892,0,0,0,5.342-5.255l3.288-4.06V478.1h5.93V382.959h-5.93v17.494Zm-1.97,30.418a34.272,34.272,0,0,1,2.247,12.495,30.947,30.947,0,0,1-2.265,11.823,32.693,32.693,0,0,1-6.73,10.214h-.006a31.631,31.631,0,0,1-9.71,7.08v.006a26.692,26.692,0,0,1-11.182,2.391A29.429,29.429,0,0,1,323.78,472.5a30.4,30.4,0,0,1-9.937-7.095,31.833,31.833,0,0,1-6.724-10.551,35.109,35.109,0,0,1-2.249-12.713,32.362,32.362,0,0,1,2.24-12.14,30.808,30.808,0,0,1,6.708-10.15A30.446,30.446,0,0,1,323.681,413a29.591,29.591,0,0,1,11.684-2.3,27.312,27.312,0,0,1,11.438,2.426v.009a30.954,30.954,0,0,1,9.774,7.2,32.635,32.635,0,0,1,6.711,10.547Zm81.5,41.6a27.129,27.129,0,0,0,4.934-5.389l3.375-4.866V478.1h5.653V407.126H453.1v15.815l-3.353-4.625a30.617,30.617,0,0,0-5.058-5.479,29.988,29.988,0,0,0-6.211-4.021,31.912,31.912,0,0,0-7.133-2.489,36.319,36.319,0,0,0-7.858-.821q-16.018,0-26.627,10.7a36.051,36.051,0,0,0-7.975,12.038,41.905,41.905,0,0,0-.057,29.217,35.771,35.771,0,0,0,7.809,11.932,34.5,34.5,0,0,0,11.674,8.007,39.418,39.418,0,0,0,22.465,1.8,35.213,35.213,0,0,0,7.555-2.617l0,0A31.057,31.057,0,0,0,444.793,472.477Zm-.691-52.352a30.825,30.825,0,0,1,9,22.014,34.3,34.3,0,0,1-2.245,12.5,32.9,32.9,0,0,1-6.713,10.592,30.866,30.866,0,0,1-9.767,7.215,27.253,27.253,0,0,1-11.444,2.439,29.559,29.559,0,0,1-11.684-2.3,31.969,31.969,0,0,1-16.567-17.02h0a32.556,32.556,0,0,1-2.241-12.193,35.057,35.057,0,0,1,2.246-12.7v-.009a31.677,31.677,0,0,1,6.727-10.539,30.328,30.328,0,0,1,9.944-7.06,29.561,29.561,0,0,1,11.856-2.369,26.84,26.84,0,0,1,11.193,2.381,31.368,31.368,0,0,1,9.7,7.048" transform="translate(323.572 -124.113)"/>
        <path id="path58" class="cls-3" d="M336.515,464.074a36.63,36.63,0,0,1-12.281,15.339,30.058,30.058,0,0,1-17.587,5.377,27.305,27.305,0,0,1-20.321-8.69,30.093,30.093,0,0,1-3.36-37.677,31.965,31.965,0,0,1,13.717-11.608c-4.4-3.893-7.391-7.416-9.014-10.521a23.7,23.7,0,0,1-2.41-10.936,22.118,22.118,0,0,1,6.952-16.429,23.714,23.714,0,0,1,17.217-6.791,21.652,21.652,0,0,1,16.011,6.953,22.573,22.573,0,0,1,6.79,16.267,21.644,21.644,0,0,1-4.891,13.74q-4.864,6.222-14.041,10.219l20.02,18.468L345,417.037h10.59l-14.877,37.676,22.083,20.3-6.116,7.275-20.16-18.212Zm-7.067-6.441-26.254-24.447a28.251,28.251,0,0,0-11.168,9.2,21.658,21.658,0,0,0-3.846,12.6c0,5.909,1.784,10.754,5.329,14.46a18.091,18.091,0,0,0,13.671,5.562,18.8,18.8,0,0,0,11.842-4.218c3.614-2.8,7.066-7.183,10.427-13.16Zm-22.663-34.758q7.682-2.989,11.471-7.461a15.69,15.69,0,0,0,3.8-10.451,13.62,13.62,0,0,0-3.824-9.779,12.342,12.342,0,0,0-9.2-4.009,13.092,13.092,0,0,0-9.848,3.94,14.348,14.348,0,0,0-3.8,10.38,15.178,15.178,0,0,0,2.479,8.387c1.644,2.55,4.633,5.562,8.92,8.992" transform="translate(250.939 -126.978)"/>
        <path id="path60" class="cls-2" d="M483.9,414.912V478.1h5.861V413.058h14.181v-5.932H489.757V382.96H483.9v24.167h-14.18v5.932H483.9Zm-268.212-7.786H210.1V478.1h5.584V443.646q0-4.8.184-8.348a44.767,44.767,0,0,1,.567-5.574h0a24.643,24.643,0,0,1,1.05-4.008h0a21.537,21.537,0,0,1,1.65-3.577l.006-.009a21.836,21.836,0,0,1,3.68-4.706,21.3,21.3,0,0,1,4.807-3.474l.006-.006a23.649,23.649,0,0,1,5.774-2.127,29.235,29.235,0,0,1,6.537-.708,29.6,29.6,0,0,1,10.248,1.61,17.289,17.289,0,0,1,7.359,5.027v.006a21.477,21.477,0,0,1,4.166,8.514,47.073,47.073,0,0,1,1.329,11.881V478.1h5.723V440.931q0-5.244-.271-9.118a49.787,49.787,0,0,0-.8-6.417h0a29.961,29.961,0,0,0-1.412-4.771,22.966,22.966,0,0,0-2.043-4.022h0a21.942,21.942,0,0,0-4.052-4.641,23.632,23.632,0,0,0-5.332-3.443,28.628,28.628,0,0,0-6.454-2.156,35.959,35.959,0,0,0-7.377-.722,37.252,37.252,0,0,0-6.723.574,27.732,27.732,0,0,0-5.83,1.73l-.016.009a24.505,24.505,0,0,0-5.074,2.879,27.324,27.324,0,0,0-4.457,4.152l-3.252,3.765V407.127Zm72.157-12.467H293.7v-11.7h-5.862Zm0,12.467V478.1H293.7V407.126Zm29.64,47.554A35.459,35.459,0,0,1,315.276,442a33.05,33.05,0,0,1,2.216-12.237h0a31.831,31.831,0,0,1,16.442-17.042,29.03,29.03,0,0,1,11.579-2.3,26.907,26.907,0,0,1,11.354,2.433,30.732,30.732,0,0,1,9.7,7.2A32.573,32.573,0,0,1,373.2,430.6a34.671,34.671,0,0,1,2.211,12.493,31.163,31.163,0,0,1-2.257,11.872,32.48,32.48,0,0,1-6.745,10.211,31.367,31.367,0,0,1-9.7,7.05,26.843,26.843,0,0,1-11.192,2.381,28.616,28.616,0,0,1-11.642-2.367,29.991,29.991,0,0,1-9.771-7.048,31.59,31.59,0,0,1-6.62-10.507Zm7.9,38.307a20.969,20.969,0,0,1-2.887-5.084h-7.36a26.039,26.039,0,0,0,3.3,6.56,27.565,27.565,0,0,0,7.029,6.889,32.142,32.142,0,0,0,9.451,4.459,40.6,40.6,0,0,0,11.278,1.487,38.74,38.74,0,0,0,14.689-2.612,29.412,29.412,0,0,0,11-7.768l0,0a34.082,34.082,0,0,0,6.974-12.467,55.224,55.224,0,0,0,2.357-16.864V407.128h-5.653v16.029L372.2,418.6a36.418,36.418,0,0,0-5.417-5.947,28.621,28.621,0,0,0-6.1-4.1v0a29.839,29.839,0,0,0-7.09-2.382,41.59,41.59,0,0,0-8.427-.8,37.035,37.035,0,0,0-14.208,2.654A34.9,34.9,0,0,0,319.282,416a35.765,35.765,0,0,0-7.858,11.92,38.949,38.949,0,0,0-2.611,14.5,39.479,39.479,0,0,0,2.645,14.7,36.62,36.62,0,0,0,19.88,20,39.091,39.091,0,0,0,14.712,2.675,31.422,31.422,0,0,0,7.56-.884,28.45,28.45,0,0,0,6.85-2.66,31.972,31.972,0,0,0,6.194-4.421,40.913,40.913,0,0,0,5.548-6.221l3.346-4.57v7.634a41.4,41.4,0,0,1-2.03,13.373,29.856,29.856,0,0,1-6.171,10.573,26.616,26.616,0,0,1-9.617,6.83,33.832,33.832,0,0,1-20.221,1.3,23.785,23.785,0,0,1-6.848-2.964l0,0a20.808,20.808,0,0,1-5.282-4.788Zm79.987-110.027h-5.722V478.1h5.722V443.646q0-4.8.185-8.348a44.359,44.359,0,0,1,.567-5.574h0a24.618,24.618,0,0,1,1.05-4.008,21.646,21.646,0,0,1,1.654-3.575l.006-.009a21.8,21.8,0,0,1,3.679-4.706,21.354,21.354,0,0,1,4.807-3.474l.009-.006a23.644,23.644,0,0,1,5.774-2.127,31.978,31.978,0,0,1,17.024,1.007,16.622,16.622,0,0,1,7.335,5.358,23.651,23.651,0,0,1,4.017,9.546,68.111,68.111,0,0,1,1.263,14.153V478.1h5.723V442.021a71.771,71.771,0,0,0-1.747-16.98,28.543,28.543,0,0,0-5.049-11.111,20.1,20.1,0,0,0-8.566-6.174,35.469,35.469,0,0,0-12.932-2.114,33.373,33.373,0,0,0-6.493.608,27.205,27.205,0,0,0-5.761,1.8l0,0a24.813,24.813,0,0,0-5,2.993,25.615,25.615,0,0,0-4.249,4.176l-3.288,4.061V382.959Z" transform="translate(14.231 -124.113)"/>
        <path id="path62" class="cls-4" d="M385.187,431.034c-3.7-7.3-11.652-9.305-16.571-18.789,0,0-12-24.913-1.844-48.9s21.407-23.754,36.169-32.98c13.441-8.4,20.651-6.592,21.656,8.066,31.578,57.434-16.089,43.211-8.125,82.482.441,2.176.664,3.72.9,4.9.564,2.825,1.211,3.593,5.135,6.046a22.032,22.032,0,0,1,2.848,2.124c.144.118.912-.319,1.077-.338.441-.051.118-.131.061-.792-3.321-38.065,6.388-29.56,18.781-40.578,16.609-14.765,12.863-16.795,38.685-16.01,23.8.722,54.853,20.2,39.678,50.749-8.1,16.3-20.3,29.527-28.605,34.14s-13.84,11.075-26.76,11.075-20.655-13.191-25.836,3.691c-2.827,9.211,40.52-3.492,42.445,35.065.924,18.453,21.72,45.093,0,53.518s-17.774,18.922-34.383,16.152c-27.06-4.509-46.817-9.556-46.817-42.911,0-21.223,6.378-30.229,1.157-45.459s-7.616,16.854-14.076,29.771S354.776,541.43,343.7,532.2s-34.141-12.917-26.759-25.835,24.914-17.532,28.6-23.07c1.72-2.578,6.444-5.36,11-7.593a46.982,46.982,0,0,1,6.865-2.926c1.973-.606,3.426-1.237,3.359-1.477-.062-.216-1.351-.045-3.075.381a87.987,87.987,0,0,1-11.657,1.806c-4.513.484-9.127.787-13.879.83-8.32.076-7.965.65-14.55-4.053l-7.591-5.423s-12-2.766-2.769-17.531,11.074-15.686,11.074-28.605-12.918-26.76,3.689-26.76c10.287,0,19,5.842,24.792,10.094,7.05,5.182,6.964,6.6,9.62,14.081,3.35,9.436,13.028,11.213,22.259,15.468a.5.5,0,0,0,.54.035.563.563,0,0,0-.039-.59Zm16.785,18.455c-1.937,1.291-11.62,5.164-7.747,9.683,2.319,5.51,3.875,3.873,3.875,9.039s-1.293,9.038,6.454,5.81c9.022.308,5.583.429,10.1,3.013,10.537,6.022,8.889-2.588,11.787-7.946s5.5-3.46,4.31-10.537c-.547-3.244-1.959-5.625-4.248-5.834-7.1-.647-4.234-.475-8.491-4.5-4.521-7.1-5.711-12.93-11.522-6.474s-2.583,6.453-4.52,7.746" transform="translate(362.349 -325.347)"/>
      </g>
    </g>
  </g>
</svg>
